<?xml version="1.0" encoding="utf-8"?>
<svg id="master-artboard" viewBox="0 0 1312.29638671875 276.1784362792969" version="1.1" xmlns="http://www.w3.org/2000/svg" x="0px" y="0px" style="enable-background:new 0 0 1400 980;" width="1312.29638671875px" height="276.1784362792969px"><rect id="ee-background" x="0" y="0" width="1312.29638671875" height="276.1784362792969" style="fill: rgb(239, 223, 228); fill-opacity: 1; pointer-events: none;"/>

<path d="M 0 0 H 1400 V 980 H 0 V 0 Z" class="st0" style="fill: rgb(246, 171, 119);" transform="matrix(1, 0, 0, 1, -64.681396484375, -150.19245529174805)"/>
<g transform="matrix(1, 0, 0, 1, -64.681396484375, -150.19245529174805)">
	<g>
		<path d="M 838.2000122070312 427.70001220703125 L 838.2000122070312 313.70001220703125 L 838.2000122070312 264.5 L 824.5 264.5 L 824.5 256.5 L 796 256.5 L 796 264.5 L 786.7999877929688 264.5 L 772.9000244140625 245.10000610351562 L 684.5 245.10000610351562 L 670.7000122070312 264.5 L 629.0999755859375 264.5 L 629.0999755859375 256.5 L 576.9000244140625 256.5 L 576.9000244140625 264.5 L 563.0999755859375 264.5 L 563.0999755859375 313.70001220703125 L 563.0999755859375 427.70001220703125 L 625.2999877929688 427.70001220703125 Z" class="st1" style="fill: rgb(237, 137, 69);"/>
		<path d="M 701 529.7999877929688 L 611.5 568 L 521.9000244140625 529.7999877929688 L 521.9000244140625 777.2999877929688 L 611.5 815.5 L 701 777.2999877929688 L 790.5999755859375 815.5 L 880.2000122070312 777.2999877929688 L 880.2000122070312 529.7999877929688 L 790.5999755859375 568 Z" class="st1" style="fill: rgb(237, 137, 69);"/>
		<path class="st1" d="M1225.5,564.9h-102.8v-17.5v-4.6v-4.2h0.7v-4.2h-1.2c-0.4-2.4-2.5-4.3-5.1-4.3s-4.6,1.9-5.1,4.3h-1.2v4.2h0.7&#10;&#9;&#9;&#9;v4.2h-102.8l-18.7,21.5l18.7,21.5h102.8h0v17.5h0v4.6h0v12.2h-102.8l-18.7,21.5l18.7,21.5h102.8v141h11.1v-141v-4.6v-33.9v-4.6&#10;&#9;&#9;&#9;V608h102.8l18.7-21.5L1225.5,564.9z" style="fill: rgb(237, 137, 69);"/>
		<path d="M 1107.800048828125 804.4000244140625 L 1104.5 815.5 L 1129.9000244140625 815.5 L 1126.5999755859375 804.4000244140625 Z" class="st1" style="fill: rgb(237, 137, 69);"/>
		<path class="st1" d="M406.9,299C406.9,299,406.9,299,406.9,299c0-0.1,0-0.1,0-0.2c0-0.1-0.1-0.3-0.1-0.4c0-0.1,0-0.1-0.1-0.2&#10;&#9;&#9;&#9;c-0.1-0.2-0.2-0.3-0.3-0.5c0,0-0.1-0.1-0.1-0.1c-0.1-0.2-0.2-0.3-0.4-0.5c0,0,0-0.1-0.1-0.1c-0.2-0.2-0.4-0.3-0.6-0.5&#10;&#9;&#9;&#9;c-0.1,0-0.1-0.1-0.2-0.1c-0.2-0.2-0.5-0.3-0.8-0.5l-21.7-8.5v-8.2c0-2.8-2.3-5-5-5h-6.4c-2.8,0-5,2.3-5,5v1.7l-13.5-5.3v-8.4&#10;&#9;&#9;&#9;c0-2.8-2.3-5-5-5h-6.4c-2.8,0-5,2.3-5,5v1.9l-20.6-8.1c0-2.2,0-4.4,0-6.7h0v0l0,0c0-0.2,0-0.3,0-0.5c0-0.2,0-0.3,0-0.5v0l0,0h0&#10;&#9;&#9;&#9;c0-4,0-8.1-0.1-12.1c-0.2-12.1-0.6-24.2-1.4-36.3c0-0.4-0.1-0.8-0.1-1.2c-0.2-1.5-0.5-3-0.9-4.5c-0.7-2.2-1.6-4.2-2.8-6&#10;&#9;&#9;&#9;c-0.4-0.6-0.8-1.2-1.3-1.8c-1.1-1.4-2.4-2.7-3.9-3.8c-0.6-0.4-1.2-0.9-1.8-1.3c-3.7-2.4-8.1-3.7-12.8-3.7l0,0&#10;&#9;&#9;&#9;c-12.5,0-22.9,9.8-23.6,22.3c-0.9,16.1-1.4,32.3-1.5,48.5h0v0c0,0.2,0,0.3,0,0.5s0,0.3,0,0.5l0,0h0c0,2.2,0,4.4,0,6.7l-20.6,8.1&#10;&#9;&#9;&#9;v-1.9c0-2.8-2.3-5-5-5h-6.4c-2.8,0-5,2.3-5,5v8.4l-13.5,5.3v-1.7c0-2.8-2.3-5-5-5h-6.4c-2.8,0-5,2.3-5,5v8.2l-21.7,8.5&#10;&#9;&#9;&#9;c-0.3,0.1-0.5,0.3-0.8,0.5c-0.1,0-0.1,0.1-0.2,0.1c-0.2,0.2-0.4,0.3-0.6,0.5c0,0,0,0.1-0.1,0.1c-0.1,0.1-0.3,0.3-0.4,0.5&#10;&#9;&#9;&#9;c0,0-0.1,0.1-0.1,0.1c-0.1,0.2-0.2,0.3-0.3,0.5c0,0.1,0,0.1-0.1,0.2c0,0.1-0.1,0.3-0.1,0.4c0,0.1,0,0.1,0,0.2c0,0.2,0,0.3,0,0.5&#10;&#9;&#9;&#9;c0,0.1,0,0.2,0,0.3c0,0.1,0,0.2,0.1,0.3c0,0.2,0.1,0.3,0.2,0.5c0,0.1,0.1,0.1,0.1,0.2c0.1,0.1,0.1,0.2,0.2,0.3&#10;&#9;&#9;&#9;c0,0,0.1,0.1,0.1,0.1c0.1,0.2,0.3,0.4,0.5,0.6c0,0,0.1,0.1,0.1,0.1c0.1,0.1,0.2,0.2,0.4,0.3l0,0l0,0c1.2,1,3.1,1.6,5.5,1.6&#10;&#9;&#9;&#9;l85.3-10.5c1.3,28.9,4.2,57.8,8.5,86.4l0.4,2.3l-32.4,20.6c-2.2,1.7-0.9,5.2,1.8,5.2h34.3c0.5,5.3,4.6,9.6,9.8,10.4v6.2&#10;&#9;&#9;&#9;c0,0.7,0.5,1.2,1.2,1.2h1.1c0.7,0,1.2-0.5,1.2-1.2v-1.5v-4.7c0.2,0,0.4,0,0.6-0.1c0.4-0.1,0.8-0.2,1.1-0.3c1.4-0.4,2.6-1.1,3.7-2&#10;&#9;&#9;&#9;c0.1-0.1,0.2-0.2,0.3-0.2c2.3-1.9,3.8-4.7,4.1-7.8h34.3c0.9,0,1.6-0.3,2.1-0.9c0.2-0.2,0.4-0.4,0.5-0.7c0.5-0.9,0.5-2-0.1-2.9&#10;&#9;&#9;&#9;c-0.2-0.3-0.4-0.5-0.7-0.7L305.9,382l0.4-2.3c0.4-2.9,0.9-5.9,1.3-8.8c0.6-4.5,1.2-9,1.8-13.5c0.7-5.8,1.4-11.6,1.9-17.4&#10;&#9;&#9;&#9;c1-10,1.9-20,2.5-30c0-0.3,0-0.7,0.1-1c0.3-4.9,0.6-9.9,0.8-14.8c0-0.3,0-0.6,0-0.9l85.3,10.5c2.6,0,4.6-0.8,5.8-1.9&#10;&#9;&#9;&#9;c0,0,0.1-0.1,0.1-0.1c0.1-0.1,0.2-0.2,0.3-0.3c0.1-0.1,0.1-0.2,0.2-0.3c0,0,0.1-0.1,0.1-0.1c0.1-0.1,0.1-0.2,0.2-0.3&#10;&#9;&#9;&#9;c0-0.1,0.1-0.1,0.1-0.2c0-0.1,0.1-0.2,0.1-0.3c0-0.1,0-0.1,0-0.2c0-0.1,0-0.2,0.1-0.3c0-0.1,0-0.2,0-0.3&#10;&#9;&#9;&#9;C406.9,299.3,406.9,299.2,406.9,299z" style="fill: rgb(237, 137, 69);"/>
		<path d="M 342.29998779296875 587.9000244140625 L 218 608.5999755859375 L 218 815.5 L 363 815.5 L 363 815.5 L 363 608.5999755859375 L 342.29998779296875 608.5999755859375 Z" class="st1" style="fill: rgb(237, 137, 69);"/>
		<path class="st1" d="M1061.1,416.1h1.4h3.1c0,0.3-0.1,0.7-0.1,1c0,5.8,4.7,10.6,10.6,10.6c5.8,0,10.6-4.7,10.6-10.6&#10;&#9;&#9;&#9;c0-0.3,0-0.7-0.1-1h30.7h30.7c0,0.3-0.1,0.7-0.1,1c0,5.8,4.7,10.6,10.6,10.6s10.6-4.7,10.6-10.6c0-0.3,0-0.7-0.1-1h3.1h0h1.4&#10;&#9;&#9;&#9;c6,0,11-4.9,11-11v-1.4c0,0,0,0,0,0V253.4c0,0,0,0,0,0V252c0-6-4.9-11-11-11h-1.4h-28.8v-47.7c2.3-0.4,4-2.3,4-4.7v-0.6&#10;&#9;&#9;&#9;c0,0,0,0,0,0v0v-0.6c0-2.6-2.1-4.7-4.7-4.7h-0.6h-24.6H1092c-2.6,0-4.7,2.1-4.7,4.7v1.2c0,2.3,1.7,4.3,4,4.7v47.7h-30.2&#10;&#9;&#9;&#9;c-6,0-11,4.9-11,11v145.3v6.4v1.4C1050.1,411.2,1055,416.1,1061.1,416.1z M1117.2,241.1h-14.9v-0.2c0-3,2.4-5.4,5.4-5.4h9.5h9.5&#10;&#9;&#9;&#9;c1.6,0,3,0.7,4,1.8c0.9,1,1.4,2.2,1.4,3.6h0l0,0l1.9,0v0.3H1117.2z M1134,193.4v37.9c-0.1-0.1-0.2-0.1-0.3-0.2&#10;&#9;&#9;&#9;c-2-1.2-4.3-1.8-6.9-1.8h-9.7h-9.7c-2.7,0-5.2,0.7-7.2,2v-37.9h16.9H1134z" style="fill: rgb(237, 137, 69);"/>
	</g>
	<g>
		<path d="M 544.799988 246.199997 H 819.899994 V 295.499996 H 544.799988 V 246.199997 Z" class="st2" style="fill: rgb(146, 146, 148);"/>
		<path d="M 544.799988 295.399994 H 819.899994 V 409.399994 H 544.799988 V 295.399994 Z" class="st3" style="fill: rgb(219, 219, 219);"/>
		<path d="M 544.799988 246.199997 H 606.999989 V 409.399994 H 544.799988 V 246.199997 Z" class="st4" style="fill: rgb(255, 255, 255);"/>
		<path d="M 544.799988 246.199997 H 606.999989 V 295.499996 H 544.799988 V 246.199997 Z" class="st5" style="fill: rgb(182, 183, 184);"/>
		<path d="M 786.700027 327.799988 A 76.300003 76.300003 0 0 1 710.400024 404.099991 A 76.300003 76.300003 0 0 1 634.100021 327.799988 A 76.300003 76.300003 0 0 1 710.400024 251.499985 A 76.300003 76.300003 0 0 1 786.700027 327.799988 Z" class="st6" style="fill: rgb(86, 87, 89);"/>
		<path d="M 767.800026 327.799988 A 57.400002 57.400002 0 0 1 710.400024 385.199989 A 57.400002 57.400002 0 0 1 653.000023 327.799988 A 57.400002 57.400002 0 0 1 710.400024 270.399986 A 57.400002 57.400002 0 0 1 767.800026 327.799988 Z" class="st2" style="fill: rgb(146, 146, 148);"/>
		<path d="M 743.300026 328.299988 A 32.900002 32.900002 0 0 1 710.400024 361.199989 A 32.900002 32.900002 0 0 1 677.500023 328.299988 A 32.900002 32.900002 0 0 1 710.400024 295.399986 A 32.900002 32.900002 0 0 1 743.300026 328.299988 Z" class="st7" style="fill: rgb(64, 64, 65);"/>
		<path d="M 768.5 246.1999969482422 L 652.4000244140625 246.1999969482422 L 666.2000122070312 226.8000030517578 L 754.5999755859375 226.8000030517578 Z" class="st6" style="fill: rgb(86, 87, 89);"/>
		<path d="M 558.599976 238.199997 H 610.699974 V 246.099997 H 558.599976 V 238.199997 Z" class="st6" style="fill: rgb(86, 87, 89);"/>
		<path d="M 777.700012 238.199997 H 806.100012 V 246.099997 H 777.700012 V 238.199997 Z" class="st6" style="fill: rgb(86, 87, 89);"/>
		<path class="st4" d="M710.4,295.4c-0.1,0-0.2,0-0.4,0l-32.5,32.5c0,0.1,0,0.2,0,0.4c0,4.5,0.9,8.8,2.5,12.7l43-43&#10;&#9;&#9;&#9;C719.2,296.3,714.9,295.4,710.4,295.4z" style="fill: rgb(255, 255, 255);"/>
		<path class="st4" d="M687,351.3l46.5-46.5c-0.6-0.6-1.2-1.2-1.9-1.7l-46.3,46.3C685.9,350.1,686.4,350.7,687,351.3z" style="fill: rgb(255, 255, 255);"/>
		<path class="st4" d="M694.2,356.9l44.8-44.8c-1-1.8-2.2-3.5-3.5-5l-46.3,46.3C690.8,354.7,692.4,355.9,694.2,356.9z" style="fill: rgb(255, 255, 255);"/>
		<path d="M 587.200025 268 A 11.3 11.3 0 0 1 575.900024 279.3 A 11.3 11.3 0 0 1 564.600024 268 A 11.3 11.3 0 0 1 575.900024 256.7 A 11.3 11.3 0 0 1 587.200025 268 Z" class="st6" style="fill: rgb(86, 87, 89);"/>
		<path d="M 783.900012 267.700012 A 6.2 6.2 0 0 1 777.700012 273.900012 A 6.2 6.2 0 0 1 771.500012 267.700012 A 6.2 6.2 0 0 1 777.700012 261.500012 A 6.2 6.2 0 0 1 783.900012 267.700012 Z" class="st8" style="fill: rgb(155, 24, 35);"/>
	</g>
	<g>
		<path d="M 593.2000122070312 797.2000122070312 L 503.6000061035156 759 L 503.6000061035156 511.5 L 593.2000122070312 549.7000122070312 Z" class="st4" style="fill: rgb(255, 255, 255);"/>
		<path d="M 593.2000122070312 786.2000122070312 L 514.2999877929688 750.2999877929688 L 514.2999877929688 524.7999877929688 L 593.2000122070312 560.7000122070312 Z" class="st9" style="fill: rgb(163, 219, 239);"/>
		<path d="M 682.7000122070312 759 L 593.2000122070312 797.2000122070312 L 593.2000122070312 549.7000122070312 L 682.7000122070312 511.5 Z" class="st3" style="fill: rgb(219, 219, 219);"/>
		<path d="M 682.7000122070312 748 L 593.2000122070312 786.2000122070312 L 593.2000122070312 560.7000122070312 L 682.7000122070312 522.5 Z" class="st10" style="fill: rgb(124, 181, 219);"/>
		<path d="M 772.2999877929688 797.2000122070312 L 861.9000244140625 759 L 861.9000244140625 511.5 L 772.2999877929688 549.7000122070312 Z" class="st3" style="fill: rgb(219, 219, 219);"/>
		<path d="M 772.2999877929688 786.2000122070312 L 851.2000122070312 750.2999877929688 L 851.2000122070312 524.7999877929688 L 772.2999877929688 560.7000122070312 Z" class="st10" style="fill: rgb(124, 181, 219);"/>
		<path d="M 682.7000122070312 759 L 772.2999877929688 797.2000122070312 L 772.2999877929688 549.7000122070312 L 682.7000122070312 511.5 Z" class="st4" style="fill: rgb(255, 255, 255);"/>
		<path d="M 682.7000122070312 748 L 772.2999877929688 786.2000122070312 L 772.2999877929688 560.7000122070312 L 682.7000122070312 522.5 Z" class="st9" style="fill: rgb(163, 219, 239);"/>
		<path d="M 536.7999877929688 566.0999755859375 L 590 573 L 607.2999877929688 584.0999755859375 L 585.2000122070312 622.0999755859375 L 572 635 L 564.4000244140625 655.5 L 572.7000122070312 677.4000244140625 L 593.2000122070312 680.2999877929688 L 581.7000122070312 705.2000122070312 L 577.2000122070312 705.2000122070312 L 572.7000122070312 718.2999877929688 L 579.5999755859375 742.4000244140625 L 566.5 732.7000122070312 L 553.5999755859375 708.5 L 536.7999877929688 680.2999877929688 L 550.5999755859375 655.5 L 553.5999755859375 638.7000122070312 L 542.2999877929688 625.5999755859375 L 529.2000122070312 609 L 518.0999755859375 582 Z" class="st11" style="fill: rgb(122, 165, 53);"/>
		<path d="M 564.4000244140625 655.5 L 572 635 L 585.2000122070312 622.0999755859375 L 593.2000122070312 608.2999877929688 L 593.2000122070312 575.0999755859375 L 590 573 L 536.7999877929688 566.0999755859375 L 518.0999755859375 582 L 529.2000122070312 609 L 542.2999877929688 625.5999755859375 L 553.5999755859375 638.7000122070312 L 550.5999755859375 655.5 L 536.7999877929688 680.2999877929688 L 553.5999755859375 708.5 L 566.5 732.7000122070312 L 579.5999755859375 742.4000244140625 L 572.7000122070312 718.2999877929688 L 577.2000122070312 705.2000122070312 L 581.7000122070312 705.2000122070312 L 593.2000122070312 680.2999877929688 L 572.7000122070312 677.4000244140625 Z" class="st12" style="fill: rgb(133, 178, 63);"/>
		<path d="M 514.2999877929688 530.9000244140625 L 534 551.5999755859375 L 524.0999755859375 562 L 514.2999877929688 568.9000244140625 Z" class="st12" style="fill: rgb(133, 178, 63);"/>
		<path class="st12" d="M643.1,555.1L619,571.7l3.5,47c0,0,24-20.7,20.7-23.5C639.8,592.4,643.1,555.1,643.1,555.1z" style="fill: rgb(133, 178, 63);"/>
		<path d="M 636.5999755859375 666.5 L 627 675.9000244140625 L 644.9000244140625 696.0999755859375 L 652.5 695.2000122070312 L 666.5 701.5999755859375 L 662.7000122070312 728.2000122070312 L 682.4000244140625 701.5999755859375 L 680.9000244140625 678.7999877929688 L 674.7000122070312 666.5 L 646.4000244140625 660.7999877929688 Z" class="st11" style="fill: rgb(122, 165, 53);"/>
		<path class="st12" d="M752.4,688.5l3.1,11.4c0,0-3.6,10.4-3.1,9.3c0.5-1,8.8-2.6,8.8-2.6l6.2-12.4l-4.7-5.7H752.4z" style="fill: rgb(133, 178, 63);"/>
		<path d="M 742.0999755859375 697.5 L 755.5 718.5 L 744.0999755859375 718.5 L 736.4000244140625 698.9000244140625 Z" class="st12" style="fill: rgb(133, 178, 63);"/>
		<path d="M 760.2000122070312 718.5 L 762.2999877929688 718.5 L 758.7000122070312 724.2000122070312 Z" class="st12" style="fill: rgb(133, 178, 63);"/>
		<path d="M 779.7000122070312 688.5 L 773.4000244140625 709.2999877929688 L 776.5999755859375 709.2000122070312 L 783.2000122070312 702 L 788.4000244140625 709.2000122070312 L 790.5 706.0999755859375 L 784.9000244140625 697.5 L 797 690.9000244140625 L 794.2999877929688 688.5 L 785.2000122070312 690.9000244140625 Z" class="st11" style="fill: rgb(122, 165, 53);"/>
		<path d="M 807.4000244140625 687.0999755859375 L 796 700.2000122070312 L 812.2000122070312 708 L 830.2000122070312 698.9000244140625 L 839.2000122070312 691.2000122070312 L 833.2999877929688 687.0999755859375 L 817.5999755859375 690.5 Z" class="st11" style="fill: rgb(122, 165, 53);"/>
		<path d="M 811.5 597.9000244140625 L 798.4000244140625 621.0999755859375 L 796 627 L 809.0999755859375 622.5 L 817 612.4000244140625 L 819.5 600 L 822.2999877929688 592.7000122070312 Z" class="st11" style="fill: rgb(122, 165, 53);"/>
		<path class="st11" d="M794.6,643.2l-5.2,1.7c0,0-0.7,2.8,2.6,2.8c3.3,0,8.8-2.2,8.8-2.2L794.6,643.2z" style="fill: rgb(122, 165, 53);"/>
		<path d="M 802.9000244140625 654.2999877929688 L 793.5999755859375 659.0999755859375 L 798.2000122070312 660.7999877929688 L 804.2999877929688 657.5 Z" class="st11" style="fill: rgb(122, 165, 53);"/>
		<path d="M 784.2000122070312 654.4000244140625 L 787 659.4000244140625 L 778 660.7999877929688 L 778 655.5 Z" class="st11" style="fill: rgb(122, 165, 53);"/>
		<path class="st11" d="M841.6,539.2l-15,8.3l-40.4,18.7l-6.2,16.6l-7.6-4.7l-5.9-11.9L725,549.9l-13,5.2l-16.6-15.9l-12.7,24.4&#10;&#9;&#9;&#9;l-3.9-3.1l-18.1,15l7.3,28l-30.1,13l12.3,2.2l15.7-4.3L650.1,633l-26.3,18.7c0,0,8.3,12.1,9.9,9.2c1.6-2.9,16.4-6.6,16.4-6.6&#10;&#9;&#9;&#9;l20.9,3.6l13.1,17.2l-0.2-8.9l8.3,8.9l9.9,22.4v11.8l19.2-21.3l3.1-16.8l8.3-3.9l9.3,16.1l5.2,14.2v-16.8l2.6-14.5l1.6-5.4&#10;&#9;&#9;&#9;l11.4,2.8l9.5-17.6l-5.9-10.4l21.8-9.3l4.7-20.2l14-22.3H817l15.3-14.9l4.7-13.8l4.3-7.6l10,10.4v-27L841.6,539.2z" style="fill: rgb(122, 165, 53);"/>
		<path class="st11" d="M660.7,575.5l7.3,28l-30.1,13l12.3,2.2l15.7-4.3L650.1,633l-26.3,18.7c0,0,8.3,12.1,9.9,9.2&#10;&#9;&#9;&#9;c1.6-2.9,16.4-6.6,16.4-6.6l20.9,3.6l13.1,17.2l-1.4-7.8V563.5l-3.9-3.1L660.7,575.5z" style="fill: rgb(122, 165, 53);"/>
		<path d="M 772.2999877929688 633.0999755859375 L 772.2999877929688 578 L 766.4000244140625 566.0999755859375 L 725 549.9000244140625 L 712 555.0999755859375 L 695.4000244140625 539.2000122070312 L 682.7000122070312 563.5 L 682.7000122070312 667.2999877929688 L 684 666.2000122070312 L 692.2999877929688 675.0999755859375 L 702.0999755859375 697.5 L 702.0999755859375 709.2000122070312 L 721.2999877929688 688 L 724.4000244140625 671.0999755859375 L 732.7000122070312 667.2000122070312 L 742.0999755859375 683.2999877929688 L 747.2999877929688 697.5 L 747.2999877929688 680.7000122070312 L 749.7999877929688 666.2000122070312 L 751.4000244140625 660.7999877929688 L 762.7999877929688 663.5999755859375 L 772.2999877929688 646 L 766.4000244140625 635.5999755859375 Z" class="st12" style="fill: rgb(133, 178, 63);"/>
		<path d="M 767.5 734.0999755859375 L 760.2000122070312 742.4000244140625 L 760.2000122070312 770.7000122070312 L 772.2999877929688 758.2999877929688 L 793.5999755859375 770.7000122070312 L 804.2999877929688 734.0999755859375 L 789.4000244140625 738.9000244140625 L 778 734.0999755859375 Z" class="st11" style="fill: rgb(122, 165, 53);"/>
		<path d="M 767.5 734.0999755859375 L 760.2000122070312 742.4000244140625 L 760.2000122070312 770.7000122070312 L 772.2999877929688 758.2999877929688 L 772.2999877929688 734.0999755859375 Z" class="st12" style="fill: rgb(133, 178, 63);"/>
		<path d="M 817 745.2000122070312 L 804.2999877929688 761.7000122070312 L 810.5999755859375 761.7000122070312 L 817.5999755859375 753.4000244140625 Z" class="st11" style="fill: rgb(122, 165, 53);"/>
	</g>
	<g>
		<path d="M 990.5 524.5 L 971.9000244140625 546.0999755859375 L 990.5 567.5999755859375 L 1093.4000244140625 567.5999755859375 L 1093.4000244140625 524.5 Z" class="st6" style="fill: rgb(86, 87, 89);"/>
		<path d="M 1207.199951171875 546.5999755859375 L 1225.9000244140625 568.0999755859375 L 1207.199951171875 589.7000122070312 L 1104.4000244140625 589.7000122070312 L 1104.4000244140625 546.5999755859375 Z" class="st7" style="fill: rgb(64, 64, 65);"/>
		<path d="M 990.5 601.7999877929688 L 971.9000244140625 623.4000244140625 L 990.5 644.9000244140625 L 1093.4000244140625 644.9000244140625 L 1093.4000244140625 601.7999877929688 Z" class="st6" style="fill: rgb(86, 87, 89);"/>
		<path d="M 1093.400024 520.400024 H 1104.500025 V 786.000031 H 1093.400024 V 520.400024 Z" class="st5" style="fill: rgb(182, 183, 184);"/>
		<path d="M 1092.599976 516.099976 H 1105.099976 V 520.299975 H 1092.599976 V 516.099976 Z" class="st6" style="fill: rgb(86, 87, 89);"/>
		<path class="st7" d="M1104,516.1c-0.4-2.4-2.5-4.3-5.1-4.3c-2.5,0-4.6,1.9-5.1,4.3H1104z" style="fill: rgb(64, 64, 65);"/>
		<path d="M 1093.400024 524.5 H 1104.500025 V 529.1 H 1093.400024 V 524.5 Z" class="st7" style="fill: rgb(64, 64, 65);"/>
		<path d="M 1093.400024 563 H 1104.500025 V 567.6 H 1093.400024 V 563 Z" class="st7" style="fill: rgb(64, 64, 65);"/>
		<path d="M 1093.400024 601.799988 H 1104.500025 V 606.399988 H 1093.400024 V 601.799988 Z" class="st7" style="fill: rgb(64, 64, 65);"/>
		<path d="M 1093.400024 640.299988 H 1104.500025 V 644.899988 H 1093.400024 V 640.299988 Z" class="st7" style="fill: rgb(64, 64, 65);"/>
		<path d="M 1093.400024 546.599976 H 1104.500025 V 551.199975 H 1093.400024 V 546.599976 Z" class="st13" style="fill: rgb(41, 40, 42);"/>
		<path d="M 1093.400024 585.099976 H 1104.500025 V 589.699975 H 1093.400024 V 585.099976 Z" class="st13" style="fill: rgb(41, 40, 42);"/>
		<path d="M 1111.5999755859375 797.2000122070312 L 1086.199951171875 797.2000122070312 L 1089.5 786.0999755859375 L 1108.300048828125 786.0999755859375 Z" class="st7" style="fill: rgb(64, 64, 65);"/>
	</g>
	<g>
		<path class="st14" d="M221.5,266h-6.4c-2.8,0-5-2.3-5-5V249c0-2.8,2.3-5,5-5h6.4c2.8,0,5,2.3,5,5v11.9&#10;&#9;&#9;&#9;C226.6,263.7,224.3,266,221.5,266z" style="fill: rgb(109, 110, 112);"/>
		<path class="st14" d="M191.6,278h-6.4c-2.8,0-5-2.3-5-5V261c0-2.8,2.3-5,5-5h6.4c2.8,0,5,2.3,5,5v11.9&#10;&#9;&#9;&#9;C196.6,275.7,194.3,278,191.6,278z" style="fill: rgb(109, 110, 112);"/>
		<path class="st6" d="M322.9,266h6.4c2.8,0,5-2.3,5-5V249c0-2.8-2.3-5-5-5h-6.4c-2.8,0-5,2.3-5,5v11.9&#10;&#9;&#9;&#9;C317.9,263.7,320.1,266,322.9,266z" style="fill: rgb(86, 87, 89);"/>
		<path class="st6" d="M352.9,278h6.4c2.8,0,5-2.3,5-5V261c0-2.8-2.3-5-5-5h-6.4c-2.8,0-5,2.3-5,5v11.9&#10;&#9;&#9;&#9;C347.8,275.7,350.1,278,352.9,278z" style="fill: rgb(86, 87, 89);"/>
		<path class="st3" d="M158.4,277.8L272.2,233L386,277.8c5.1,2.6,2.2,7.7-4.4,7.7L272.2,272l-109.4,13.4&#10;&#9;&#9;&#9;C156.2,285.4,153.3,280.3,158.4,277.8z" style="fill: rgb(219, 219, 219);"/>
		<path class="st5" d="M381.6,285.4c6.6,0,9.5-5.1,4.4-7.7L272.2,233v39L381.6,285.4z" style="fill: rgb(182, 183, 184);"/>
		<path class="st4" d="M157.3,283.8c0.3-0.2,0.7-0.5,1.1-0.7l113.8-44.7L386,283.1c0.4,0.2,0.8,0.4,1.1,0.7c2.2-1.7,2.2-4.4-1.1-6.1&#10;&#9;&#9;&#9;L272.2,233l-113.8,44.7C155.1,279.4,155.1,282.1,157.3,283.8z" style="fill: rgb(255, 255, 255);"/>
		<path class="st3" d="M386,283.1c0.4,0.2,0.8,0.4,1.1,0.7c2.2-1.7,2.2-4.4-1.1-6.1L272.2,233v5.4L386,283.1z" style="fill: rgb(219, 219, 219);"/>
		<path class="st3" d="M224.5,384.3l47.8-30.4l47.8,30.4c2.2,1.7,0.9,5.2-1.8,5.2h-91.8C223.5,389.6,222.3,386.1,224.5,384.3z" style="fill: rgb(219, 219, 219);"/>
		<path class="st4" d="M272.2,164.5L272.2,164.5c-12.5,0-22.9,9.8-23.6,22.3c-0.9,16.1-1.4,32.3-1.5,48.5h0v0c0,0.2,0,0.3,0,0.5&#10;&#9;&#9;&#9;s0,0.3,0,0.5l0,0h0c0,41.9,3.2,83.7,9.4,125.2l4.1,27.1c0,6.4,5.2,11.6,11.6,11.6c6.4,0,11.6-5.2,11.6-11.6l4.1-27.1&#10;&#9;&#9;&#9;c6.2-41.4,9.3-83.3,9.4-125.2h0l0,0c0-0.2,0-0.3,0-0.5s0-0.3,0-0.5v0h0c0-16.2-0.5-32.3-1.5-48.5&#10;&#9;&#9;&#9;C295.1,174.3,284.7,164.5,272.2,164.5z" style="fill: rgb(255, 255, 255);"/>
		<path class="st9" d="M285.3,199.7c-3-4-7.8-6.6-13.1-6.6c-5.4,0-10.1,2.6-13.1,6.6H285.3z" style="fill: rgb(163, 219, 239);"/>
		<path class="st3" d="M272.8,407.4h-1.1c-0.7,0-1.2-0.5-1.2-1.2v-58.7c0-0.7,0.5-1.2,1.2-1.2h1.1c0.7,0,1.2,0.5,1.2,1.2v58.7&#10;&#9;&#9;&#9;C274,406.8,273.5,407.4,272.8,407.4z" style="fill: rgb(219, 219, 219);"/>
		<path class="st5" d="M320,384.3L272.2,354l0,0v35.6h45.9C320.9,389.6,322.1,386.1,320,384.3z" style="fill: rgb(182, 183, 184);"/>
		<path class="st3" d="M283.9,388.4l4.1-27.1c6.2-41.4,9.3-83.3,9.4-125.2h0v0c0-0.2,0-0.3,0-0.5c0-0.2,0-0.3,0-0.5v0h0&#10;&#9;&#9;&#9;c0-16.2-0.5-32.3-1.5-48.5c-0.7-12.5-11.1-22.3-23.6-22.3h0v235.6C278.6,400.1,283.9,394.9,283.9,388.4z" style="fill: rgb(219, 219, 219);"/>
		<path class="st5" d="M274,404.6V349c0-1.5-0.8-2.8-1.8-2.8v61.1C273.2,407.4,274,406.1,274,404.6z" style="fill: rgb(182, 183, 184);"/>
		<path class="st10" d="M272.2,193.2v6.6h13.1C282.3,195.8,277.6,193.2,272.2,193.2L272.2,193.2z" style="fill: rgb(124, 181, 219);"/>
	</g>
	<g>
		<path d="M 324 776.5 L 199.6999969482422 797.2000122070312 L 199.6999969482422 590.4000244140625 L 324 569.5999755859375 Z" class="st15" style="fill: rgb(86, 144, 199);"/>
		<path d="M 199.699997 590.400024 H 344.699997 V 797.200027 H 199.699997 V 590.400024 Z" class="st9" style="fill: rgb(163, 219, 239);"/>
		<path class="st4" d="M320.7,675.3l-37.8-14.9c0-0.9,0-1.9,0-2.8h0l0,0c0-0.1,0-0.1,0-0.2c0-0.1,0-0.1,0-0.2v0h0&#10;&#9;&#9;&#9;c0-6.9-0.2-13.8-0.6-20.7c-0.3-5.3-4.7-9.5-10.1-9.5l0,0c-5.3,0-9.8,4.2-10.1,9.5c-0.4,6.9-0.6,13.8-0.6,20.7h0v0&#10;&#9;&#9;&#9;c0,0.1,0,0.1,0,0.2c0,0.1,0,0.1,0,0.2l0,0h0c0,0.9,0,1.9,0,2.8l-37.8,14.9c-2.2,1.1-0.9,3.3,1.9,3.3h36.6&#10;&#9;&#9;&#9;c0.6,10.8,1.8,21.6,3.4,32.4l0.9,6.2l-14.6,9.3c-0.9,0.7-0.4,2.2,0.8,2.2h39.1c1.2,0,1.7-1.5,0.8-2.2l-14.6-9.3l0.9-6.2&#10;&#9;&#9;&#9;c1.6-10.7,2.7-21.5,3.4-32.4h36.6C321.7,678.6,322.9,676.4,320.7,675.3z" style="fill: rgb(255, 255, 255);"/>
		<path d="M 236.600006 753.599976 H 307.800003 V 766.699976 H 236.600006 V 753.599976 Z" class="st4" style="fill: rgb(255, 255, 255);"/>
		<path d="M 272.200012 590.400024 H 344.700012 V 797.200027 H 272.200012 V 590.400024 Z" class="st10" style="fill: rgb(124, 181, 219);"/>
		<path d="M 272.200012 753.599976 H 307.800011 V 766.699976 H 272.200012 V 753.599976 Z" class="st3" style="fill: rgb(219, 219, 219);"/>
		<path class="st3" d="M291.8,728.7c1.2,0,1.7-1.5,0.8-2.2l-14.6-9.3l0.9-6.2c1.6-10.7,2.7-21.5,3.4-32.4h36.6&#10;&#9;&#9;&#9;c2.8,0,4.1-2.2,1.9-3.3l-37.8-14.9c0-0.9,0-1.9,0-2.8h0c0-0.1,0-0.1,0-0.2c0-0.1,0-0.1,0-0.2v0h0c0-6.9-0.2-13.8-0.6-20.7&#10;&#9;&#9;&#9;c-0.3-5.3-4.7-9.5-10.1-9.5v101.6H291.8z" style="fill: rgb(219, 219, 219);"/>
	</g>
	<g>
		<path d="M 1068.299952 398.799988 A 10.6 10.6 0 0 1 1057.699951 409.399988 A 10.6 10.6 0 0 1 1047.099951 398.799988 A 10.6 10.6 0 0 1 1057.699951 388.199987 A 10.6 10.6 0 0 1 1068.299952 398.799988 Z" class="st7" style="fill: rgb(64, 64, 65);"/>
		<path d="M 1150.699976 398.799988 A 10.6 10.6 0 0 1 1140.099976 409.399988 A 10.6 10.6 0 0 1 1129.499975 398.799988 A 10.6 10.6 0 0 1 1140.099976 388.199987 A 10.6 10.6 0 0 1 1150.699976 398.799988 Z" class="st13" style="fill: rgb(41, 40, 42);"/>
		<path class="st9" d="M1155,397.8h-112.2c-6,0-11-4.9-11-11V233.7c0-6,4.9-11,11-11H1155c6,0,11,4.9,11,11v153.1&#10;&#9;&#9;&#9;C1166,392.9,1161,397.8,1155,397.8z" style="fill: rgb(163, 219, 239);"/>
		<path class="st10" d="M1153.6,222.8h-54.7v175h54.7c6.8,0,12.4-5.6,12.4-12.4V235.1C1166,228.3,1160.4,222.8,1153.6,222.8z" style="fill: rgb(124, 181, 219);"/>
		<path class="st4" d="M1049.2,378.5h-13.9c-1.2,0-2.4,0.2-3.5,0.5v6.4c0,6.8,5.6,12.4,12.4,12.4h17.4v-7&#10;&#9;&#9;&#9;C1061.6,384.1,1056,378.5,1049.2,378.5z" style="fill: rgb(255, 255, 255);"/>
		<path class="st3" d="M1166,379c-1.1-0.3-2.3-0.5-3.5-0.5h-13.9c-6.8,0-12.4,5.6-12.4,12.4v7h17.4c6.8,0,12.4-5.6,12.4-12.4V379z" style="fill: rgb(219, 219, 219);"/>
		<path d="M 1073 166.800003 H 1082.1 V 222.700005 H 1073 V 166.800003 Z" class="st7" style="fill: rgb(64, 64, 65);"/>
		<path d="M 1115.699951 166.800003 H 1124.799952 V 222.700005 H 1115.699951 V 166.800003 Z" class="st13" style="fill: rgb(41, 40, 42);"/>
		<path class="st10" d="M1124.1,175.1h-50.4c-2.6,0-4.7-2.1-4.7-4.7v-1.2c0-2.6,2.1-4.7,4.7-4.7h50.4c2.6,0,4.7,2.1,4.7,4.7v1.2&#10;&#9;&#9;&#9;C1128.8,173,1126.7,175.1,1124.1,175.1z" style="fill: rgb(124, 181, 219);"/>
		<path class="st2" d="M1084,222.8v-0.2c0-3,2.4-5.4,5.4-5.4h19c3,0,5.4,2.4,5.4,5.4l7.1-0.2c0-6.8-5.6-11.3-12.4-11.3h-19.3&#10;&#9;&#9;&#9;c-6.8,0-12.4,4.5-12.4,11.3v0.4H1084z" style="fill: rgb(146, 146, 148);"/>
		<path class="st14" d="M1108.5,211.1h-9.7v6h9.5c3,0,5.4,2.4,5.4,5.4l7.1-0.2C1120.9,215.6,1115.3,211.1,1108.5,211.1z" style="fill: rgb(109, 110, 112);"/>
		<path class="st15" d="M1123.5,164.5h-24.6v10.6h24.6c2.9,0,5.3-2.4,5.3-5.3C1128.8,166.9,1126.4,164.5,1123.5,164.5z" style="fill: rgb(86, 144, 199);"/>
	</g>
</g>
</svg>