<?xml version="1.0" encoding="utf-8"?>
<svg id="master-artboard" viewBox="0 0 1052.474365234375 226.84518432617188" version="1.1" xmlns="http://www.w3.org/2000/svg" x="0px" y="0px" style="enable-background:new 0 0 1400 980;" width="1052.474365234375px" height="226.84518432617188px"><rect id="ee-background" x="0" y="0" width="1052.474365234375" height="226.84518432617188" style="fill: white; fill-opacity: 0; pointer-events: none;"/>

<path d="M 0 -3.9 H 1400 V 984.000024 H 0 V -3.9 Z" class="st0" style="fill: rgb(241, 246, 222);" transform="matrix(1, 0, 0, 1, -186.37019729614258, -379.31817626953125)"/>
<g transform="matrix(1, 0, 0, 1, -186.37019729614258, -379.31817626953125)">
		<g>
			<path class="st1" d="M783.3,213.2h-138v0c-3.9-10-3.9-21,0-31v0h138v0C787.2,192.2,787.2,203.3,783.3,213.2L783.3,213.2z" style="fill: rgb(255, 247, 143);"/>
			<path class="st2" d="M783.3,204.1L783.3,204.1l-138,0v0c-1.4-3.5-2.3-7.2-2.7-10.9c-0.7,6.8,0.1,13.6,2.7,20.1v0h138v0&#10;&#9;&#9;&#9;&#9;c2.5-6.4,3.4-13.3,2.7-20.1C785.5,196.9,784.7,200.5,783.3,204.1z" style="fill: rgb(212, 202, 119);"/>
			<path class="st3" d="M783.3,214.8H644.2l-0.4-1c-4-10.4-4-21.8,0-32.2l0.4-1h140.2l0.4,1c4,10.4,4,21.8,0,32.2l-0.4,1&#10;&#9;&#9;&#9;&#9;L783.3,214.8z M646.4,211.6l135.8,0c3.2-9,3.2-18.8,0-27.8H646.4C643.2,192.8,643.2,202.6,646.4,211.6z" style="fill: rgb(0, 66, 85);"/>
			<path d="M 669 186.100006 H 759.5 V 287.100006 H 669 V 186.100006 Z" class="st4" style="fill: rgb(247, 156, 123);"/>
			<path d="M 669 283.200012 H 759.5 V 287.000012 H 669 V 283.200012 Z" class="st5" style="fill: rgb(200, 127, 101);"/>
			<path class="st3" d="M761.2,288.7h-93.8V184.5h93.8V288.7z M670.6,285.5h87.3v-97.8h-87.3V285.5z" style="fill: rgb(0, 66, 85);"/>
			<path class="st6" d="M765.4,222.1H663.2v-42.9c0-6.1,5-11.1,11.1-11.1h80.1c6.1,0,11.1,5,11.1,11.1V222.1z" style="fill: rgb(253, 196, 137);"/>
			<path d="M 663.200012 209.199997 H 765.400009 V 222.099997 H 663.200012 V 209.199997 Z" class="st7" style="fill: rgb(210, 164, 116);"/>
			<path class="st3" d="M767,223.7H661.6v-44.5c0-7,5.7-12.7,12.7-12.7h80.1c7,0,12.7,5.7,12.7,12.7V223.7z M664.8,220.5h99v-41.2&#10;&#9;&#9;&#9;&#9;c0-5.2-4.2-9.5-9.5-9.5h-80.1c-5.2,0-9.5,4.2-9.5,9.5V220.5z" style="fill: rgb(0, 66, 85);"/>
			<g>
				<path class="st6" d="M661.3,290.5h13.2c1.4,0,2.6-1.2,2.6-2.6v-28.6c0-1.4-1.2-2.6-2.6-2.6h-13.2c-3.7,0-6.7,3-6.7,6.7v20.3&#10;&#9;&#9;&#9;&#9;&#9;C654.5,287.5,657.6,290.5,661.3,290.5z" style="fill: rgb(253, 196, 137);"/>
				<path class="st7" d="M674.5,283.8h-13.2c-3.7,0-6.7-3-6.7-6.7v6.6c0,3.7,3,6.7,6.7,6.7h13.2c1.4,0,2.6-1.2,2.6-2.6v-6.6&#10;&#9;&#9;&#9;&#9;&#9;C677.1,282.7,675.9,283.8,674.5,283.8z" style="fill: rgb(210, 164, 116);"/>
				<path class="st6" d="M754.1,290.5h13.2c3.7,0,6.7-3,6.7-6.7v-20.3c0-3.7-3-6.7-6.7-6.7h-13.2c-1.4,0-2.6,1.2-2.6,2.6v28.6&#10;&#9;&#9;&#9;&#9;&#9;C751.5,289.3,752.7,290.5,754.1,290.5z" style="fill: rgb(253, 196, 137);"/>
				<path class="st7" d="M767.3,283.8h-13.2c-1.4,0-2.6-1.2-2.6-2.6v6.7c0,1.4,1.2,2.6,2.6,2.6h13.2c3.7,0,6.7-3,6.7-6.7v-6.7&#10;&#9;&#9;&#9;&#9;&#9;C774,280.8,771,283.8,767.3,283.8z" style="fill: rgb(210, 164, 116);"/>
			</g>
			<g>
				<path class="st3" d="M674.5,292.1h-13.2c-4.6,0-8.3-3.7-8.3-8.3v-20.3c0-4.6,3.7-8.3,8.3-8.3h13.2c2.3,0,4.2,1.9,4.2,4.2v28.6&#10;&#9;&#9;&#9;&#9;&#9;C678.7,290.2,676.8,292.1,674.5,292.1z M661.3,258.3c-2.8,0-5.1,2.3-5.1,5.1v20.3c0,2.8,2.3,5.1,5.1,5.1h13.2c0.6,0,1-0.5,1-1&#10;&#9;&#9;&#9;&#9;&#9;v-28.6c0-0.6-0.5-1-1-1H661.3z" style="fill: rgb(0, 66, 85);"/>
				<path class="st3" d="M767.3,292.1h-13.2c-2.3,0-4.2-1.9-4.2-4.2v-28.6c0-2.3,1.9-4.2,4.2-4.2h13.2c4.6,0,8.3,3.7,8.3,8.3v20.3&#10;&#9;&#9;&#9;&#9;&#9;C775.7,288.3,771.9,292.1,767.3,292.1z M754.1,258.3c-0.6,0-1,0.5-1,1v28.6c0,0.6,0.5,1,1,1h13.2c2.8,0,5.1-2.3,5.1-5.1v-20.3&#10;&#9;&#9;&#9;&#9;&#9;c0-2.8-2.3-5.1-5.1-5.1H754.1z" style="fill: rgb(0, 66, 85);"/>
			</g>
			<path d="M 738 216.399994 H 745.4 V 243.999994 H 738 V 216.399994 Z" class="st6" style="fill: rgb(253, 196, 137);"/>
			<path class="st3" d="M747,245.6h-10.7v-30.8H747V245.6z M739.6,242.4h4.2v-24.3h-4.2V242.4z" style="fill: rgb(0, 66, 85);"/>
			<path d="M 733.900024 240.800003 H 749.400024 V 247.600003 H 733.900024 V 240.800003 Z" class="st6" style="fill: rgb(253, 196, 137);"/>
			<path class="st3" d="M751,249.2h-18.7v-10.1H751V249.2z M735.5,246h12.3v-3.6h-12.3V246z" style="fill: rgb(0, 66, 85);"/>
			<path d="M 683.200012 216.399994 H 690.600012 V 243.999994 H 683.200012 V 216.399994 Z" class="st6" style="fill: rgb(253, 196, 137);"/>
			<path class="st3" d="M692.2,245.6h-10.7v-30.8h10.7V245.6z M684.8,242.4h4.2v-24.3h-4.2V242.4z" style="fill: rgb(0, 66, 85);"/>
			<path d="M 679.200012 240.800003 H 694.700012 V 247.600003 H 679.200012 V 240.800003 Z" class="st6" style="fill: rgb(253, 196, 137);"/>
			<path class="st3" d="M696.3,249.2h-18.7v-10.1h18.7V249.2z M680.8,246H693v-3.6h-12.3V246z" style="fill: rgb(0, 66, 85);"/>
			<g>
				<path class="st4" d="M698.6,154.7h-18.7c-0.8,0-1.4,0.6-1.4,1.4V168H700v-11.9C700,155.3,699.4,154.7,698.6,154.7z" style="fill: rgb(247, 156, 123);"/>
				<path class="st4" d="M748.7,154.7H730c-0.8,0-1.4,0.6-1.4,1.4V168h21.5v-11.9C750.1,155.3,749.5,154.7,748.7,154.7z" style="fill: rgb(247, 156, 123);"/>
			</g>
			<g>
				<path class="st3" d="M701.6,169.6h-24.7v-13.5c0-1.7,1.4-3,3-3h18.7c1.7,0,3,1.4,3,3V169.6z M680.1,166.4h18.3v-10.1h-18.3&#10;&#9;&#9;&#9;&#9;&#9;V166.4z" style="fill: rgb(0, 66, 85);"/>
				<path class="st3" d="M751.7,169.6H727v-13.5c0-1.7,1.4-3,3-3h18.7c1.7,0,3,1.4,3,3V169.6z M730.2,166.4h18.3v-10.1h-18.3V166.4z&#10;&#9;&#9;&#9;&#9;&#9;" style="fill: rgb(0, 66, 85);"/>
			</g>
			<path class="st6" d="M738.5,291.9h-48.4c-2.1,0-3.9-1.7-3.9-3.9v-30.5h56.2V288C742.4,290.2,740.6,291.9,738.5,291.9z" style="fill: rgb(253, 196, 137);"/>
			<path class="st7" d="M738.5,283.8h-48.4c-2.1,0-3.9-1.7-3.9-3.9v8c0,2.1,1.7,3.9,3.9,3.9h48.4c2.1,0,3.9-1.7,3.9-3.9v-8&#10;&#9;&#9;&#9;&#9;C742.4,282.1,740.6,283.8,738.5,283.8z" style="fill: rgb(210, 164, 116);"/>
			<path class="st3" d="M738.5,293.5h-48.4c-3,0-5.5-2.5-5.5-5.5v-32.1H744V288C744,291,741.5,293.5,738.5,293.5z M687.8,259.1V288&#10;&#9;&#9;&#9;&#9;c0,1.3,1,2.3,2.3,2.3h48.4c1.3,0,2.3-1,2.3-2.3v-28.9H687.8z" style="fill: rgb(0, 66, 85);"/>
		</g>
		<g>
			<path d="M 777.800026 514.599976 A 64.900002 64.900002 0 0 1 712.900024 579.499977 A 64.900002 64.900002 0 0 1 648.000023 514.599976 A 64.900002 64.900002 0 0 1 712.900024 449.699974 A 64.900002 64.900002 0 0 1 777.800026 514.599976 Z" class="st8" style="fill: rgb(191, 231, 251);"/>
			<g>
				<path class="st9" d="M725,515.5l-4.7,2.1l-11.6-3.6l-3.6-3.9l4.9-8.8l23.5-16l-2.8-9l-9-7.5l-11.1,1.8l-6.5-8.8l-21.4-3.4&#10;&#9;&#9;&#9;&#9;&#9;l-4.6,0.7c-5.2,3.9-9.7,8.5-13.5,13.8l1.5,2.8h12.1l9.6,12.7l9,21.7l5.2,6.7l16.8,4.4l-2.3,5.4l6.2,10.6l-4.1,18.1l4.1,9.3&#10;&#9;&#9;&#9;&#9;&#9;l16.1-20.7l7.2-5.6l2.8-7.2l-11.4-4.4L725,515.5z" style="fill: rgb(126, 201, 161);"/>
				<path class="st9" d="M764.7,485.3l-5.2,12.7l2.6,8.5l-6.8,6.7l7.9,1.7l8.5,8.8l4.7,4.6c1-4.5,1.5-9.1,1.5-13.8&#10;&#9;&#9;&#9;&#9;&#9;c0-10.9-2.7-21.2-7.4-30.2L764.7,485.3z" style="fill: rgb(126, 201, 161);"/>
			</g>
			<path class="st3" d="M722.8,565.8c-0.1,0-0.2,0-0.2,0c-0.7-0.1-1.3-0.5-1.6-1.2l-3.8-8.5c-0.2-0.4-0.2-0.8-0.1-1.3l4-17.3&#10;&#9;&#9;&#9;&#9;l-5.8-9.9c-0.3-0.5-0.4-1.2-0.1-1.8l1.5-3.5l-14.9-3.9c-0.4-0.1-0.8-0.4-1.1-0.7l-5.1-6.6c-0.1-0.1-0.2-0.3-0.3-0.4l-8.9-21.5&#10;&#9;&#9;&#9;&#9;l-9-11.9h-11.1c-0.7,0-1.4-0.4-1.8-1.1l-1.3-2.4c-0.4-0.7-0.3-1.5,0.1-2.1c3.8-5.3,8.4-9.9,13.6-13.9c0.3-0.2,0.6-0.3,0.9-0.4&#10;&#9;&#9;&#9;&#9;l4.4-0.7c0.2,0,0.4,0,0.6,0l21.2,3.3c0.5,0.1,1,0.4,1.3,0.8l5.8,7.9l10-1.6c0.6-0.1,1.2,0.1,1.6,0.4l8.8,7.3&#10;&#9;&#9;&#9;&#9;c0.3,0.2,0.5,0.6,0.6,0.9l2.7,8.6c0.3,0.8,0,1.8-0.8,2.3l-22.9,15.6l-4.2,7.4l2.5,2.7l10.7,3.3l3.9-1.7h0&#10;&#9;&#9;&#9;&#9;c0.7-0.3,1.6-0.2,2.2,0.3l12,10.7l10.7,4.1c0.5,0.2,0.9,0.6,1.1,1.1c0.2,0.5,0.2,1,0,1.5l-2.6,6.7c-0.1,0.3-0.3,0.6-0.6,0.8&#10;&#9;&#9;&#9;&#9;l-6.9,5.4l-15.6,20C724,565.5,723.4,565.8,722.8,565.8z M720.2,555.1l2.8,6.4l14.4-18.6c0.1-0.1,0.2-0.2,0.3-0.3l6.8-5.3l2.1-5.3&#10;&#9;&#9;&#9;&#9;l-9.8-3.8c-0.2-0.1-0.4-0.2-0.6-0.4l-11.6-10.4l-3.6,1.6c-0.4,0.2-0.9,0.2-1.4,0.1l-11.4-3.5c-0.3-0.1-0.6-0.3-0.9-0.5l-3.3-3.6&#10;&#9;&#9;&#9;&#9;c-0.6-0.6-0.7-1.6-0.3-2.3l4.7-8.4c0.2-0.3,0.4-0.5,0.6-0.7l22.5-15.3l-2.3-7.5l-8.1-6.7l-10.1,1.7c-0.7,0.1-1.5-0.2-1.9-0.8&#10;&#9;&#9;&#9;&#9;l-5.9-8.1l-20.6-3.2l-3.9,0.6c-4.6,3.6-8.8,7.7-12.2,12.4l0.6,1.1h11c0.6,0,1.2,0.3,1.6,0.8l9.4,12.5c0.1,0.1,0.2,0.3,0.2,0.4&#10;&#9;&#9;&#9;&#9;l8.9,21.5l4.7,6.1l15.8,4.1c0.6,0.1,1,0.5,1.3,1.1c0.3,0.5,0.3,1.1,0,1.7l-1.8,4.2l5.7,9.8c0.3,0.4,0.3,1,0.2,1.5L720.2,555.1z&#10;&#9;&#9;&#9;&#9; M720,554.8L720,554.8C720,554.8,720,554.8,720,554.8z M739.8,545.1L739.8,545.1C739.8,545.1,739.8,545.1,739.8,545.1z&#10;&#9;&#9;&#9;&#9; M744.8,537.1C744.8,537.1,744.8,537.1,744.8,537.1L744.8,537.1z M721.1,537C721.1,537,721.1,537,721.1,537L721.1,537z&#10;&#9;&#9;&#9;&#9; M738.4,525.4L738.4,525.4C738.4,525.4,738.4,525.4,738.4,525.4z M738,525.2L738,525.2C738,525.2,738,525.2,738,525.2z&#10;&#9;&#9;&#9;&#9; M725.4,517.1L725.4,517.1C725.4,517.1,725.4,517.1,725.4,517.1z M720.7,516L720.7,516C720.7,516,720.7,516,720.7,516z&#10;&#9;&#9;&#9;&#9; M698.1,509.2L698.1,509.2C698.1,509.2,698.1,509.2,698.1,509.2z M729.6,477.4C729.6,477.4,729.6,477.4,729.6,477.4L729.6,477.4z&#10;&#9;&#9;&#9;&#9; M729.2,476.8C729.2,476.8,729.2,476.8,729.2,476.8L729.2,476.8z M666.1,472.4L666.1,472.4C666.1,472.4,666.1,472.4,666.1,472.4z&#10;&#9;&#9;&#9;&#9; M682.4,460C682.4,460,682.4,460,682.4,460L682.4,460z M682.8,460L682.8,460C682.8,460,682.8,460,682.8,460z" style="fill: rgb(0, 66, 85);"/>
			<path class="st9" d="M704.2,452.6v4.8c0,0.2,0.1,0.3,0.2,0.4l7.5,3.9c0,0,0.1,0,0.1,0.1l5.8,3.7c0,0,4.8-0.8,4.6-0.9L717,460&#10;&#9;&#9;&#9;&#9;l-2.5-3.9c0-0.1-0.1-0.3-0.3-0.3l-5.5-2l-4.1-1.6C704.5,452.1,704.2,452.3,704.2,452.6z" style="fill: rgb(126, 201, 161);"/>
			<path class="st3" d="M717.5,467.1L711,463l-7.4-3.8c-0.7-0.3-1.1-1-1.1-1.8v-4.8c0-0.7,0.3-1.3,0.9-1.7c0.5-0.4,1.2-0.5,1.9-0.2&#10;&#9;&#9;&#9;&#9;l4.1,1.6l5.4,2c0.5,0.2,1,0.6,1.2,1.1l2.2,3.5l5,4.2l0.9,0.4l-0.1,1.2c-0.2,1.3-0.9,1.4-3.6,1.9c-1.2,0.2-2.3,0.4-2.3,0.4&#10;&#9;&#9;&#9;&#9;L717.5,467.1z M713,460.4l5.2,3.3c0.2,0,0.5-0.1,0.7-0.1l-3-2.6l-2.5-4l-5-1.8l-2.5-1v2.4l6.9,3.6&#10;&#9;&#9;&#9;&#9;C712.8,460.3,712.9,460.4,713,460.4z" style="fill: rgb(0, 66, 85);"/>
			<path class="st3" d="M776.1,529.6c-0.5,0-1-0.2-1.4-0.6l-4.1-4.1l-8.2-8.5l-6.7-1.5c-0.7-0.2-1.3-0.7-1.5-1.4&#10;&#9;&#9;&#9;&#9;c-0.2-0.7,0-1.5,0.5-2l5.6-5.5l-2.3-7.4c-0.1-0.4-0.1-0.9,0.1-1.3l5-12.4c0.3-0.6,0.9-1.1,1.5-1.2l5.2-0.8&#10;&#9;&#9;&#9;&#9;c0.9-0.1,1.7,0.3,2.1,1.1c4.9,9.4,7.5,20,7.5,30.7c0,4.5-0.5,9-1.4,13.4c-0.1,0.7-0.7,1.3-1.4,1.5&#10;&#9;&#9;&#9;&#9;C776.5,529.5,776.3,529.6,776.1,529.6z M758.5,512.3l4.9,1.1c0.4,0.1,0.7,0.3,1,0.6l8.4,8.7l2.5,2.5c0.6-3.5,0.9-7.1,0.9-10.6&#10;&#9;&#9;&#9;&#9;c0-9.9-2.3-19.7-6.7-28.4l-3.7,0.6l-4.6,11.4l2.3,7.7c0.2,0.7,0,1.5-0.5,2L758.5,512.3z M762.7,516.5&#10;&#9;&#9;&#9;&#9;C762.7,516.5,762.7,516.5,762.7,516.5L762.7,516.5z M760.8,505.6C760.8,505.6,760.8,505.6,760.8,505.6L760.8,505.6z" style="fill: rgb(0, 66, 85);"/>
			<path class="st3" d="M712.9,580.8c-36.8,0-66.7-29.9-66.7-66.7s29.9-66.7,66.7-66.7c36.8,0,66.7,29.9,66.7,66.7&#10;&#9;&#9;&#9;&#9;S749.7,580.8,712.9,580.8z M712.9,451.1c-34.8,0-63,28.3-63,63s28.3,63,63,63c34.8,0,63-28.3,63-63S747.7,451.1,712.9,451.1z" style="fill: rgb(0, 66, 85);"/>
			<g>
				<path class="st10" d="M751.6,500.1l-26-55.6c-5.1-10.9-2.8-23.9,5.7-32.4v0c11.2-11.2,29.3-11.2,40.5,0v0&#10;&#9;&#9;&#9;&#9;&#9;c8.5,8.5,10.8,21.5,5.7,32.4L751.6,500.1z" style="fill: rgb(253, 196, 132);"/>
				<path class="st11" d="M771.9,412.2L771.9,412.2C771.9,412.1,771.9,412.1,771.9,412.2c4,7.7,4.4,17.2,0.5,25.4l-25,53.5l4.2,9&#10;&#9;&#9;&#9;&#9;&#9;l26-55.6C782.7,433.6,780.4,420.7,771.9,412.2z" style="fill: rgb(206, 161, 109);"/>
				<path d="M 771.599976 432.5 A 20 20 0 0 1 751.599976 452.5 A 20 20 0 0 1 731.599976 432.5 A 20 20 0 0 1 751.599976 412.5 A 20 20 0 0 1 771.599976 432.5 Z" class="st12" style="fill: rgb(243, 119, 129);"/>
				<path class="st13" d="M767.8,420.8c0.5,1.8,0.8,3.7,0.8,5.7c0,11.1-9,20-20,20c-6.7,0-12.6-3.3-16.2-8.3&#10;&#9;&#9;&#9;&#9;&#9;c2.5,8.3,10.1,14.3,19.2,14.3c11.1,0,20-9,20-20C771.7,428.1,770.2,424.1,767.8,420.8z" style="fill: rgb(204, 101, 109);"/>
			</g>
			<g>
				<path class="st3" d="M751.6,504.4L724,445.3c-5.4-11.6-3-25.4,6.1-34.5c5.8-5.8,13.4-8.9,21.6-8.9s15.8,3.2,21.6,8.9&#10;&#9;&#9;&#9;&#9;&#9;c9,9,11.5,22.9,6.1,34.5L751.6,504.4z M751.6,405.6c-7.2,0-13.9,2.8-19,7.9c-8,8-10.1,20.1-5.3,30.3l24.3,52l24.3-52&#10;&#9;&#9;&#9;&#9;&#9;c4.8-10.2,2.6-22.4-5.3-30.3C765.5,408.4,758.8,405.6,751.6,405.6z" style="fill: rgb(0, 66, 85);"/>
				<path class="st3" d="M751.6,454.4c-12,0-21.8-9.8-21.8-21.8c0-12,9.8-21.8,21.8-21.8s21.8,9.8,21.8,21.8&#10;&#9;&#9;&#9;&#9;&#9;C773.5,444.6,763.7,454.4,751.6,454.4z M751.6,414.3c-10,0-18.2,8.2-18.2,18.2c0,10,8.2,18.2,18.2,18.2s18.2-8.2,18.2-18.2&#10;&#9;&#9;&#9;&#9;&#9;C769.8,422.5,761.7,414.3,751.6,414.3z" style="fill: rgb(0, 66, 85);"/>
			</g>
		</g>
		<g>
			<path d="M 798 841.4000244140625 L 630.5 841.4000244140625 L 656.2000122070312 771.4000244140625 L 772.4000244140625 771.4000244140625 Z" class="st14" style="fill: rgb(207, 220, 227);"/>
			<path class="st3" d="M800.4,843H628.2l26.9-73.3h118.5L800.4,843z M632.9,839.7h162.8L771.2,773H657.4L632.9,839.7z" style="fill: rgb(0, 66, 85);"/>
			<path d="M 786.5999755859375 834.4000244140625 L 642 834.4000244140625 L 659.7000122070312 777.7999877929688 L 768.9000244140625 777.7999877929688 Z" class="st15" style="fill: rgb(132, 207, 197);"/>
			<path class="st3" d="M788.8,836H639.8l18.7-59.9h111.6L788.8,836z M644.3,832.7h140.1l-16.7-53.3H660.9L644.3,832.7z" style="fill: rgb(0, 66, 85);"/>
			<path class="st10" d="M714.3,804.6l-23.6-50.4c-4.6-9.9-2.6-21.7,5.2-29.4h0c10.2-10.2,26.6-10.2,36.8,0l0,0&#10;&#9;&#9;&#9;&#9;c7.7,7.7,9.8,19.5,5.2,29.4L714.3,804.6z" style="fill: rgb(253, 196, 132);"/>
			<path class="st16" d="M732.7,724.8L732.7,724.8c-0.8-0.8-1.7-1.6-2.6-2.3c5.8,7.6,7,17.9,2.9,26.7l-22.2,47.6l3.6,7.8l23.6-50.4&#10;&#9;&#9;&#9;&#9;C742.5,744.3,740.4,732.6,732.7,724.8z" style="fill: rgb(212, 166, 112);"/>
			<path class="st3" d="M714.3,808.5l-25-53.6c-4.9-10.5-2.7-23.1,5.5-31.3c5.2-5.2,12.2-8.1,19.5-8.1c7.4,0,14.3,2.9,19.5,8.1&#10;&#9;&#9;&#9;&#9;c8.2,8.2,10.4,20.8,5.5,31.3L714.3,808.5z M714.3,718.9c-6.5,0-12.6,2.5-17.2,7.1c-7.2,7.2-9.2,18.3-4.8,27.5l22.1,47.2&#10;&#9;&#9;&#9;&#9;l22.1-47.2c4.3-9.2,2.4-20.3-4.8-27.5C726.9,721.4,720.8,718.9,714.3,718.9z" style="fill: rgb(0, 66, 85);"/>
			<path d="M 732.499989 743.299988 A 18.200001 18.200001 0 0 1 714.299988 761.499989 A 18.200001 18.200001 0 0 1 696.099987 743.299988 A 18.200001 18.200001 0 0 1 714.299988 725.099987 A 18.200001 18.200001 0 0 1 732.499989 743.299988 Z" class="st12" style="fill: rgb(243, 119, 129);"/>
			<path class="st17" d="M727.2,730.5c1.1,2.3,1.7,4.9,1.7,7.6c0,10-8.1,18.2-18.2,18.2c-5,0-9.6-2-12.9-5.3&#10;&#9;&#9;&#9;&#9;c2.9,6.2,9.2,10.6,16.5,10.6c10,0,18.2-8.1,18.2-18.2C732.4,738.3,730.4,733.8,727.2,730.5z" style="fill: rgb(210, 104, 112);"/>
			<path class="st3" d="M714.3,763.1c-10.9,0-19.8-8.9-19.8-19.8c0-10.9,8.9-19.8,19.8-19.8c10.9,0,19.8,8.9,19.8,19.8&#10;&#9;&#9;&#9;&#9;C734.1,754.2,725.2,763.1,714.3,763.1z M714.3,726.8c-9.1,0-16.5,7.4-16.5,16.5c0,9.1,7.4,16.5,16.5,16.5&#10;&#9;&#9;&#9;&#9;c9.1,0,16.5-7.4,16.5-16.5C730.8,734.2,723.4,726.8,714.3,726.8z" style="fill: rgb(0, 66, 85);"/>
			<path d="M 778.7999877929688 809.5999755859375 L 777.0999755859375 804 L 738.5999755859375 804 L 737.0999755859375 777.7999877929688 L 731.5 777.7999877929688 L 730.0999755859375 804 L 676.4000244140625 804 L 678.2000122070312 777.7999877929688 L 673.5999755859375 777.7999877929688 L 667 804 L 651.5 804 L 649.7999877929688 809.5999755859375 L 688.2999877929688 809.5999755859375 L 683.4000244140625 834.4000244140625 L 693.2000122070312 834.4000244140625 L 694.0999755859375 809.5999755859375 L 729.7999877929688 809.5999755859375 L 728.4000244140625 834.4000244140625 L 740.2000122070312 834.4000244140625 L 738.9000244140625 809.5999755859375 Z" class="st18" style="fill: rgb(255, 255, 255);"/>
			<path class="st3" d="M742,836h-15.3l1.4-24.8h-32.4l-0.9,24.8h-13.4l4.9-24.8h-38.8l2.8-8.9h15.4l6.6-26.2h7.6l-1.8,26.2h50.4&#10;&#9;&#9;&#9;&#9;l1.4-26.2h8.7l1.4,26.2h38.2l2.8,8.9h-40.5L742,836z M730.2,832.7h8.3l-1.4-24.8h39.5l-0.7-2.3H737l-1.4-26.2h-2.5l-1.4,26.2h-57&#10;&#9;&#9;&#9;&#9;l1.8-26.2h-1.5l-6.6,26.2h-15.6L652,808h38.3l-4.9,24.8h6.2l0.9-24.8h39L730.2,832.7z" style="fill: rgb(0, 66, 85);"/>
		</g>
		<g>
			<path class="st19" d="M456.8,543.7H318.5c-0.8,0-1.5-0.7-1.5-1.5V456c0-0.8,0.7-1.5,1.5-1.5h138.3c0.8,0,1.5,0.7,1.5,1.5v86.2&#10;&#9;&#9;&#9;&#9;C458.2,543,457.6,543.7,456.8,543.7z" style="fill: rgb(234, 111, 105);"/>
			<path class="st20" d="M456.8,454.5h-10.4c0.8,0,1.5,0.7,1.5,1.5v86.2c0,0.8-0.7,1.5-1.5,1.5h10.4c0.8,0,1.5-0.7,1.5-1.5V456&#10;&#9;&#9;&#9;&#9;C458.2,455.2,457.6,454.5,456.8,454.5z" style="fill: rgb(194, 92, 87);"/>
			<path class="st3" d="M456.8,545.3H318.5c-1.7,0-3.1-1.4-3.1-3.1V456c0-1.7,1.4-3.1,3.1-3.1h138.3c1.7,0,3.1,1.4,3.1,3.1v86.2&#10;&#9;&#9;&#9;&#9;C459.8,543.9,458.5,545.3,456.8,545.3z M318.6,542.1h138v-85.9h-138V542.1z" style="fill: rgb(0, 66, 85);"/>
			<path d="M 442.100014 499.399994 A 37.400002 37.400002 0 0 1 404.700012 536.799995 A 37.400002 37.400002 0 0 1 367.300011 499.399994 A 37.400002 37.400002 0 0 1 404.700012 461.999992 A 37.400002 37.400002 0 0 1 442.100014 499.399994 Z" class="st21" style="fill: rgb(144, 197, 221);"/>
			<path class="st3" d="M404.7,538.4c-21.5,0-39-17.5-39-39s17.5-39,39-39c21.5,0,39,17.5,39,39S426.3,538.4,404.7,538.4z&#10;&#9;&#9;&#9;&#9; M404.7,463.6c-19.7,0-35.8,16.1-35.8,35.8s16.1,35.8,35.8,35.8c19.7,0,35.8-16.1,35.8-35.8S424.5,463.6,404.7,463.6z" style="fill: rgb(0, 66, 85);"/>
			<path d="M 432.200012 499.399994 A 27.5 27.5 0 0 1 404.700012 526.899994 A 27.5 27.5 0 0 1 377.200012 499.399994 A 27.5 27.5 0 0 1 404.700012 471.899994 A 27.5 27.5 0 0 1 432.200012 499.399994 Z" class="st22" style="fill: rgb(225, 244, 253);"/>
			<path class="st23" d="M426.2,482.2c1,2.8,1.5,5.8,1.5,9c0,15.2-12.3,27.5-27.5,27.5c-8.7,0-16.4-4-21.5-10.3&#10;&#9;&#9;&#9;&#9;c3.7,10.8,14,18.6,26,18.6c15.2,0,27.5-12.3,27.5-27.5C432.3,492.9,430,486.9,426.2,482.2z" style="fill: rgb(192, 208, 217);"/>
			<path class="st3" d="M404.7,528.5c-16.1,0-29.2-13.1-29.2-29.2s13.1-29.2,29.2-29.2c16.1,0,29.2,13.1,29.2,29.2&#10;&#9;&#9;&#9;&#9;S420.8,528.5,404.7,528.5z M404.7,473.5c-14.3,0-25.9,11.6-25.9,25.9s11.6,25.9,25.9,25.9c14.3,0,25.9-11.6,25.9-25.9&#10;&#9;&#9;&#9;&#9;S419,473.5,404.7,473.5z" style="fill: rgb(0, 66, 85);"/>
			<path d="M 324.799988 463.600006 H 358.599987 V 478.100006 H 324.799988 V 463.600006 Z" class="st22" style="fill: rgb(225, 244, 253);"/>
			<path d="M 349.600006 463.600006 H 358.600006 V 478.100006 H 349.600006 V 463.600006 Z" class="st24" style="fill: rgb(184, 200, 209);"/>
			<path class="st3" d="M360.3,479.7h-37V462h37V479.7z M326.5,476.5H357v-11.3h-30.6V476.5z" style="fill: rgb(0, 66, 85);"/>
			<path d="M 370.699994 531.599976 A 6.8 6.8 0 0 1 363.899994 538.399976 A 6.8 6.8 0 0 1 357.099994 531.599976 A 6.8 6.8 0 0 1 363.899994 524.799975 A 6.8 6.8 0 0 1 370.699994 531.599976 Z" class="st25" style="fill: rgb(255, 247, 149);"/>
			<path class="st3" d="M363.9,540c-4.7,0-8.4-3.8-8.4-8.4s3.8-8.4,8.4-8.4c4.7,0,8.4,3.8,8.4,8.4S368.5,540,363.9,540z&#10;&#9;&#9;&#9;&#9; M363.9,526.4c-2.9,0-5.2,2.3-5.2,5.2s2.3,5.2,5.2,5.2c2.9,0,5.2-2.3,5.2-5.2S366.8,526.4,363.9,526.4z" style="fill: rgb(0, 66, 85);"/>
			<path d="M 430 439 L 379.5 439 L 376.29998779296875 454.5 L 433.20001220703125 454.5 Z" class="st26" style="fill: rgb(240, 167, 123);"/>
			<path d="M 430 439 L 417.6000061035156 439 L 420.79998779296875 454.5 L 433.20001220703125 454.5 Z" class="st27" style="fill: rgb(214, 149, 110);"/>
			<path class="st3" d="M435.2,456.1h-60.9l3.9-18.7h53.1L435.2,456.1z M378.2,452.9h53l-2.6-12.3h-47.9L378.2,452.9z" style="fill: rgb(0, 66, 85);"/>
			<path d="M 323.600006 444.700012 H 345.700006 V 454.600012 H 323.600006 V 444.700012 Z" class="st26" style="fill: rgb(240, 167, 123);"/>
			<path d="M 338.399994 444.700012 H 345.799994 V 454.600012 H 338.399994 V 444.700012 Z" class="st27" style="fill: rgb(214, 149, 110);"/>
			<path class="st3" d="M347.4,456.1H322v-13.1h25.3V456.1z M325.2,452.9h18.9v-6.6h-18.9V452.9z" style="fill: rgb(0, 66, 85);"/>
		</g>
		<g>
			
				<path d="M 971.700012 439.5 H 1052.200012 V 478.900002 H 971.700012 V 439.5 Z" transform="matrix(0.882 -0.4712 0.4712 0.882 -97.0102 530.9961)" class="st28" style="fill: rgb(109, 200, 189);"/>
			<path class="st3" d="M985.1,497.8L965,460.2l73.8-39.4l20.1,37.6L985.1,497.8z M969.3,461.5l17.1,31.9l68.1-36.4l-17.1-31.9&#10;&#9;&#9;&#9;&#9;L969.3,461.5z" style="fill: rgb(0, 66, 85);"/>
			
				<path d="M 1000.900024 439.5 H 1081.400024 V 478.900002 H 1000.900024 V 439.5 Z" transform="matrix(0.9663 -0.2575 0.2575 0.9663 -83.1473 283.5883)" class="st28" style="fill: rgb(109, 200, 189);"/>
			<path class="st3" d="M1006.2,490.6l-11-41.2l80.9-21.6l11,41.2L1006.2,490.6z M999.1,451.7l9.3,35l74.6-19.9l-9.3-35L999.1,451.7&#10;&#9;&#9;&#9;&#9;z" style="fill: rgb(0, 66, 85);"/>
			<path d="M 1054.000025 460.799988 A 12.1 12.1 0 0 1 1041.900024 472.899988 A 12.1 12.1 0 0 1 1029.800024 460.799988 A 12.1 12.1 0 0 1 1041.900024 448.699987 A 12.1 12.1 0 0 1 1054.000025 460.799988 Z" class="st29" style="fill: rgb(213, 230, 160);"/>
			<path class="st3" d="M1041.9,474.5c-7.6,0-13.7-6.2-13.7-13.7c0-7.6,6.2-13.7,13.7-13.7s13.7,6.2,13.7,13.7&#10;&#9;&#9;&#9;&#9;C1055.7,468.3,1049.5,474.5,1041.9,474.5z M1041.9,450.2c-5.8,0-10.5,4.7-10.5,10.5c0,5.8,4.7,10.5,10.5,10.5s10.5-4.7,10.5-10.5&#10;&#9;&#9;&#9;&#9;C1052.4,455,1047.7,450.2,1041.9,450.2z" style="fill: rgb(0, 66, 85);"/>
			<path class="st30" d="M1086.4,560.4H964.1c-5.2,0-9.4-4.2-9.4-9.4v-69.6c0-5.2,4.2-9.4,9.4-9.4h122.3c1.9,0,3.4,1.5,3.4,3.4V557&#10;&#9;&#9;&#9;&#9;C1089.9,558.9,1088.3,560.4,1086.4,560.4z" style="fill: rgb(196, 154, 108);"/>
			<path class="st31" d="M1086.4,471.9h-10.3c1.9,0,3.4,1.5,3.4,3.4V557c0,1.9-1.5,3.4-3.4,3.4h10.3c1.9,0,3.4-1.5,3.4-3.4v-81.7&#10;&#9;&#9;&#9;&#9;C1089.9,473.4,1088.3,471.9,1086.4,471.9z" style="fill: rgb(165, 131, 91);"/>
			<path class="st3" d="M1086.4,562H964.1c-6.1,0-11.1-5-11.1-11.1v-69.6c0-6.1,5-11.1,11.1-11.1h122.3c2.8,0,5,2.3,5,5V557&#10;&#9;&#9;&#9;&#9;C1091.5,559.8,1089.2,562,1086.4,562z M964.1,473.5c-4.3,0-7.8,3.5-7.8,7.8V551c0,4.3,3.5,7.8,7.8,7.8h122.3c1,0,1.8-0.8,1.8-1.8&#10;&#9;&#9;&#9;&#9;v-81.7c0-1-0.8-1.8-1.8-1.8H964.1z" style="fill: rgb(0, 66, 85);"/>
			<path d="M 954.700012 518 H 1089.900009 V 524.8 H 954.700012 V 518 Z" class="st32" style="fill: rgb(255, 202, 106);"/>
			<path class="st3" d="M1091.5,526.4H953v-10.1h138.4V526.4z M956.3,523.2h132v-3.6h-132V523.2z" style="fill: rgb(0, 66, 85);"/>
			<path class="st32" d="M1063.3,531.8h26.6v-26.6h-26.6c-7.3,0-13.3,5.9-13.3,13.3v0C1050,525.9,1056,531.8,1063.3,531.8z" style="fill: rgb(255, 202, 106);"/>
			<path d="M 1079.699951 505.299988 H 1089.899951 V 531.899988 H 1079.699951 V 505.299988 Z" class="st33" style="fill: rgb(205, 164, 87);"/>
			<path class="st3" d="M1091.5,533.5h-28.2c-8.2,0-14.9-6.7-14.9-14.9s6.7-14.9,14.9-14.9h28.2V533.5z M1063.3,506.9&#10;&#9;&#9;&#9;&#9;c-6.4,0-11.7,5.2-11.7,11.7s5.2,11.7,11.7,11.7h24.9v-23.3H1063.3z" style="fill: rgb(0, 66, 85);"/>
			<path d="M 1070.600024 518.599976 A 6.2 6.2 0 0 1 1064.400024 524.799975 A 6.2 6.2 0 0 1 1058.200025 518.599976 A 6.2 6.2 0 0 1 1064.400024 512.399976 A 6.2 6.2 0 0 1 1070.600024 518.599976 Z" class="st34" style="fill: rgb(244, 126, 89);"/>
			<path class="st3" d="M1064.4,526.3c-4.3,0-7.8-3.5-7.8-7.8s3.5-7.8,7.8-7.8c4.3,0,7.8,3.5,7.8,7.8S1068.7,526.3,1064.4,526.3z&#10;&#9;&#9;&#9;&#9; M1064.4,514c-2.5,0-4.6,2-4.6,4.6s2,4.6,4.6,4.6c2.5,0,4.6-2,4.6-4.6S1066.9,514,1064.4,514z" style="fill: rgb(0, 66, 85);"/>
		</g>
		<g>
			<path class="st35" d="M481.3,795.4L348,833.7l-23.8-82.6c-0.4-1.5,0.4-3,1.9-3.4l130.7-37.6c1.5-0.4,3,0.4,3.4,1.9l23,80&#10;&#9;&#9;&#9;&#9;C483.6,793.5,482.8,795,481.3,795.4z" style="fill: rgb(242, 113, 134);"/>
			<path class="st36" d="M483.2,792l-23-80c-0.4-1.5-1.9-2.3-3.4-1.9l-10.2,2.9c1,0.2,1.8,0.9,2.1,1.9l23,80c0.4,1.5-0.4,3-1.9,3.4&#10;&#9;&#9;&#9;&#9;l-121.9,35l0.1,0.3l133.3-38.3C482.8,795,483.6,793.5,483.2,792z" style="fill: rgb(208, 97, 116);"/>
			<path class="st3" d="M346.9,835.7l-24.2-84.2c-0.7-2.3,0.7-4.7,3-5.4l130.7-37.6c1.1-0.3,2.3-0.2,3.3,0.4c1,0.6,1.7,1.5,2.1,2.6&#10;&#9;&#9;&#9;&#9;l23,80c0.7,2.3-0.7,4.7-3,5.4L346.9,835.7z M457.6,711.6c-0.1,0-0.2,0-0.3,0l-130.7,37.6c-0.6,0.2-0.9,0.8-0.8,1.4l23.3,81.1&#10;&#9;&#9;&#9;&#9;l131.7-37.9c0.6-0.2,0.9-0.8,0.8-1.4l-23-80c-0.1-0.3-0.3-0.5-0.5-0.7C457.9,711.7,457.7,711.6,457.6,711.6z" style="fill: rgb(0, 66, 85);"/>
			<path class="st37" d="M459.7,779.1l-14.7,4.2c-1.3,0.4-2.7-0.4-3.1-1.7l-4.2-14.7c-0.4-1.3,0.4-2.7,1.7-3.1l14.7-4.2&#10;&#9;&#9;&#9;&#9;c1.3-0.4,2.7,0.4,3.1,1.7l4.2,14.7C461.8,777.4,461,778.8,459.7,779.1z" style="fill: rgb(255, 209, 94);"/>
			<path class="st3" d="M444.7,785.1c-0.7,0-1.4-0.2-2-0.5c-1-0.5-1.6-1.4-1.9-2.4l-4.2-14.7c-0.6-2.2,0.6-4.4,2.8-5.1l14.7-4.2&#10;&#9;&#9;&#9;&#9;c2.2-0.6,4.4,0.6,5.1,2.8l4.2,14.7c0.6,2.2-0.6,4.4-2.8,5.1l-14.7,4.2C445.5,785,445.1,785.1,444.7,785.1z M455.2,761.2&#10;&#9;&#9;&#9;&#9;c-0.1,0-0.2,0-0.2,0l-14.7,4.2c-0.5,0.1-0.7,0.6-0.6,1.1l4.2,14.7c0.1,0.2,0.2,0.4,0.4,0.5c0.2,0.1,0.4,0.1,0.7,0.1l14.7-4.2&#10;&#9;&#9;&#9;&#9;c0.5-0.1,0.7-0.6,0.6-1.1l-4.2-14.7C455.9,761.5,455.6,761.2,455.2,761.2z" style="fill: rgb(0, 66, 85);"/>
			<path class="st38" d="M429.5,848.6H295.8c-2.1,0-3.9-1.7-3.9-3.9v-81c0-2.1,1.7-3.9,3.9-3.9h133.7c2.1,0,3.9,1.7,3.9,3.9v81&#10;&#9;&#9;&#9;&#9;C433.4,846.8,431.6,848.6,429.5,848.6z" style="fill: rgb(122, 199, 206);"/>
			<path class="st39" d="M429.5,759.8h-11.7c2.1,0,3.9,1.7,3.9,3.9v81c0,2.1-1.7,3.9-3.9,3.9h11.7c2.1,0,3.9-1.7,3.9-3.9v-81&#10;&#9;&#9;&#9;&#9;C433.4,761.6,431.6,759.8,429.5,759.8z" style="fill: rgb(100, 163, 170);"/>
			<path class="st3" d="M429.5,850.2H295.8c-3,0-5.5-2.5-5.5-5.5v-81c0-3,2.5-5.5,5.5-5.5h133.7c3,0,5.5,2.5,5.5,5.5v81&#10;&#9;&#9;&#9;&#9;C435,847.7,432.5,850.2,429.5,850.2z M295.8,761.5c-1.2,0-2.2,1-2.2,2.2v81c0,1.2,1,2.2,2.2,2.2h133.7c1.2,0,2.2-1,2.2-2.2v-81&#10;&#9;&#9;&#9;&#9;c0-1.2-1-2.2-2.2-2.2H295.8z" style="fill: rgb(0, 66, 85);"/>
			<path d="M 291.899994 775 H 433.299988 V 792.5 H 291.899994 V 775 Z" class="st40" style="fill: rgb(230, 231, 232);"/>
			<path d="M 421.700012 775 H 433.400012 V 792.5 H 421.700012 V 775 Z" class="st41" style="fill: rgb(188, 190, 192);"/>
			<path class="st3" d="M435,794.1H290.3v-20.7H435V794.1z M293.6,790.9h138.2v-14.3H293.6V790.9z" style="fill: rgb(0, 66, 85);"/>
			<path d="M 403.800006 825.900024 A 9.7 9.7 0 0 1 394.100006 835.600024 A 9.7 9.7 0 0 1 384.400006 825.900024 A 9.7 9.7 0 0 1 394.100006 816.200025 A 9.7 9.7 0 0 1 403.800006 825.900024 Z" class="st42" style="fill: rgb(243, 119, 93);"/>
			<path class="st3" d="M394.1,837.2c-6.2,0-11.3-5.1-11.3-11.3s5.1-11.3,11.3-11.3s11.3,5.1,11.3,11.3S400.3,837.2,394.1,837.2z&#10;&#9;&#9;&#9;&#9; M394.1,817.9c-4.4,0-8,3.6-8,8s3.6,8,8,8c4.4,0,8-3.6,8-8S398.5,817.9,394.1,817.9z" style="fill: rgb(0, 66, 85);"/>
			<path d="M 417.400012 825.900024 A 9.7 9.7 0 0 1 407.700012 835.600024 A 9.7 9.7 0 0 1 398.000012 825.900024 A 9.7 9.7 0 0 1 407.700012 816.200025 A 9.7 9.7 0 0 1 417.400012 825.900024 Z" class="st43" style="fill: rgb(255, 245, 124);"/>
			<path class="st3" d="M407.7,837.2c-6.2,0-11.3-5.1-11.3-11.3s5.1-11.3,11.3-11.3s11.3,5.1,11.3,11.3S413.9,837.2,407.7,837.2z&#10;&#9;&#9;&#9;&#9; M407.7,817.9c-4.4,0-8,3.6-8,8s3.6,8,8,8s8-3.6,8-8S412.1,817.9,407.7,817.9z" style="fill: rgb(0, 66, 85);"/>
		</g>
		<g>
			<path class="st44" d="M1054.7,851.7h-64.9c-7,0-12.6-5.7-12.6-12.6v-85.2c0-7,5.7-12.6,12.6-12.6h64.9c7,0,12.6,5.7,12.6,12.6&#10;&#9;&#9;&#9;&#9;v85.2C1067.3,846.1,1061.7,851.7,1054.7,851.7z" style="fill: rgb(162, 128, 186);"/>
			<path class="st45" d="M1054.7,741.3h-9.9c7,0,12.6,5.7,12.6,12.6v85.2c0,7-5.7,12.6-12.6,12.6h9.9c7,0,12.6-5.7,12.6-12.6v-85.2&#10;&#9;&#9;&#9;&#9;C1067.3,746.9,1061.7,741.3,1054.7,741.3z" style="fill: rgb(134, 106, 155);"/>
			<path class="st3" d="M1054.7,853.3h-64.9c-7.8,0-14.2-6.4-14.2-14.2v-85.2c0-7.8,6.4-14.2,14.2-14.2h64.9&#10;&#9;&#9;&#9;&#9;c7.8,0,14.2,6.4,14.2,14.2v85.2C1068.9,847,1062.5,853.3,1054.7,853.3z M989.8,742.9c-6.1,0-11,4.9-11,11v85.2&#10;&#9;&#9;&#9;&#9;c0,6.1,4.9,11,11,11h64.9c6.1,0,11-4.9,11-11v-85.2c0-6.1-4.9-11-11-11H989.8z" style="fill: rgb(0, 66, 85);"/>
			<g>
				<path d="M 998.099976 697.599976 H 1004.499976 V 741.299976 H 998.099976 V 697.599976 Z" class="st46" style="fill: rgb(108, 119, 185);"/>
				<path d="M 1040 697.599976 H 1046.4 V 741.299976 H 1040 V 697.599976 Z" class="st46" style="fill: rgb(108, 119, 185);"/>
			</g>
			<g>
				<path class="st3" d="M1006.2,742.9h-9.7V696h9.7V742.9z M999.7,739.7h3.2v-40.5h-3.2V739.7z" style="fill: rgb(0, 66, 85);"/>
				<path class="st3" d="M1048,742.9h-9.7V696h9.7V742.9z M1041.6,739.7h3.2v-40.5h-3.2V739.7z" style="fill: rgb(0, 66, 85);"/>
			</g>
			<path class="st44" d="M1049.4,704.2h-54.4c-1.2,0-2.2-1-2.2-2.2l0,0c0-4.4,3.6-8,8-8h42.7c4.4,0,8,3.6,8,8l0,0&#10;&#9;&#9;&#9;&#9;C1051.6,703.2,1050.6,704.2,1049.4,704.2z" style="fill: rgb(162, 128, 186);"/>
			<path class="st3" d="M1049.4,705.8h-54.4c-2.1,0-3.8-1.7-3.8-3.8c0-5.3,4.3-9.6,9.6-9.6h42.7c5.3,0,9.6,4.3,9.6,9.6&#10;&#9;&#9;&#9;&#9;C1053.2,704.1,1051.5,705.8,1049.4,705.8z M1000.9,695.6c-3.5,0-6.4,2.9-6.4,6.4c0,0.3,0.3,0.6,0.6,0.6h54.4&#10;&#9;&#9;&#9;&#9;c0.3,0,0.6-0.3,0.6-0.6c0-3.5-2.9-6.4-6.4-6.4H1000.9z" style="fill: rgb(0, 66, 85);"/>
			<g>
				<path class="st46" d="M997.6,864.6L997.6,864.6c-2.6,0-4.8-2.1-4.8-4.8v-8.1h9.5v8.1C1002.3,862.5,1000.2,864.6,997.6,864.6z" style="fill: rgb(108, 119, 185);"/>
				<path class="st46" d="M1046.9,864.6L1046.9,864.6c-2.6,0-4.8-2.1-4.8-4.8v-8.1h9.5v8.1C1051.7,862.5,1049.6,864.6,1046.9,864.6z&#10;&#9;&#9;&#9;&#9;&#9;" style="fill: rgb(108, 119, 185);"/>
			</g>
			<g>
				<path class="st3" d="M997.6,866.2c-3.5,0-6.4-2.9-6.4-6.4v-9.7h12.7v9.7C1003.9,863.3,1001.1,866.2,997.6,866.2z M994.4,853.3&#10;&#9;&#9;&#9;&#9;&#9;v6.5c0,1.7,1.4,3.2,3.2,3.2s3.2-1.4,3.2-3.2v-6.5H994.4z" style="fill: rgb(0, 66, 85);"/>
				<path class="st3" d="M1046.9,866.2c-3.5,0-6.4-2.9-6.4-6.4v-9.7h12.7v9.7C1053.3,863.3,1050.4,866.2,1046.9,866.2z&#10;&#9;&#9;&#9;&#9;&#9; M1043.8,853.3v6.5c0,1.7,1.4,3.2,3.2,3.2c1.7,0,3.2-1.4,3.2-3.2v-6.5H1043.8z" style="fill: rgb(0, 66, 85);"/>
			</g>
			<g>
				<path class="st47" d="M996.4,840.9L996.4,840.9c-1.4,0-2.5-1.1-2.5-2.5v-83.7c0-1.4,1.1-2.5,2.5-2.5l0,0c1.4,0,2.5,1.1,2.5,2.5&#10;&#9;&#9;&#9;&#9;&#9;v83.7C999,839.8,997.8,840.9,996.4,840.9z" style="fill: rgb(120, 94, 139);"/>
				<path class="st47" d="M1022.3,840.9L1022.3,840.9c-1.4,0-2.5-1.1-2.5-2.5v-83.7c0-1.4,1.1-2.5,2.5-2.5l0,0&#10;&#9;&#9;&#9;&#9;&#9;c1.4,0,2.5,1.1,2.5,2.5v83.7C1024.8,839.8,1023.7,840.9,1022.3,840.9z" style="fill: rgb(120, 94, 139);"/>
				<path class="st47" d="M1048.1,840.9L1048.1,840.9c-1.4,0-2.5-1.1-2.5-2.5v-83.7c0-1.4,1.1-2.5,2.5-2.5l0,0&#10;&#9;&#9;&#9;&#9;&#9;c1.4,0,2.5,1.1,2.5,2.5v83.7C1050.6,839.8,1049.5,840.9,1048.1,840.9z" style="fill: rgb(120, 94, 139);"/>
			</g>
		</g>
		<g>
			
				<path d="M 947.799988 167.5 H 1096.699982 V 263.699997 H 947.799988 V 167.5 Z" transform="matrix(0.9545 -0.2981 0.2981 0.9545 -17.8013 314.5855)" class="st48" style="fill: rgb(191, 196, 200);"/>
			<path class="st3" d="M964.5,285.8l-29.6-94.9l145.2-45.3l29.6,94.9L964.5,285.8z M938.9,193l27.7,88.8l139-43.4l-27.7-88.8&#10;&#9;&#9;&#9;&#9;L938.9,193z" style="fill: rgb(0, 66, 85);"/>
			<path d="M 947.799988 167.5 H 1096.699982 V 263.699997 H 947.799988 V 167.5 Z" class="st49" style="fill: rgb(234, 239, 242);"/>
			<path class="st3" d="M1098.3,265.4H946.2v-99.4h152.1V265.4z M949.4,262.1h145.7v-93H949.4V262.1z" style="fill: rgb(0, 66, 85);"/>
			<path d="M 959.5 176.600006 H 1085 V 254.600006 H 959.5 V 176.600006 Z" class="st50" style="fill: rgb(188, 230, 251);"/>
			<path class="st3" d="M1086.6,256.3H957.9V175h128.8V256.3z M961.1,253h122.3v-74.8H961.1V253z" style="fill: rgb(0, 66, 85);"/>
			<path d="M 959.5 254.60000610351562 L 1011.9000244140625 207 L 1048.9000244140625 254.60000610351562 Z" class="st9" style="fill: rgb(126, 201, 161);"/>
			<path d="M 1011.9000244140625 207 L 1006 212.39999389648438 L 1038.800048828125 254.60000610351562 L 1048.9000244140625 254.60000610351562 Z" class="st51" style="fill: rgb(110, 176, 142);"/>
			<path class="st3" d="M1052.2,256.3h-91.7c-0.8,0-1.6-0.5-1.9-1.3c-0.3-0.8-0.1-1.7,0.5-2.2l0,0l52.9-48.1L1052.2,256.3z&#10;&#9;&#9;&#9;&#9; M963.7,253h82l-33.9-43.7L963.7,253z" style="fill: rgb(0, 66, 85);"/>
			<path d="M 1029.699951171875 229.8000030517578 L 1063.699951171875 210.6999969482422 L 1085 225.1999969482422 L 1085 254.60000610351562 L 1048.9000244140625 254.60000610351562 Z" class="st52" style="fill: rgb(101, 163, 132);"/>
			<path class="st3" d="M1086.6,256.3h-38.5l-20.9-26.9l36.5-20.5l22.9,15.5V256.3z M1049.7,253h33.7v-27l-19.8-13.4l-31.5,17.7&#10;&#9;&#9;&#9;&#9;L1049.7,253z" style="fill: rgb(0, 66, 85);"/>
			<path d="M 1056.399976 195.899994 A 8.8 8.8 0 0 1 1047.599976 204.699994 A 8.8 8.8 0 0 1 1038.799975 195.899994 A 8.8 8.8 0 0 1 1047.599976 187.099994 A 8.8 8.8 0 0 1 1056.399976 195.899994 Z" class="st1" style="fill: rgb(255, 247, 143);"/>
			<path class="st3" d="M1047.6,206.3c-5.7,0-10.4-4.7-10.4-10.4c0-5.7,4.7-10.4,10.4-10.4s10.4,4.7,10.4,10.4&#10;&#9;&#9;&#9;&#9;C1058,201.6,1053.3,206.3,1047.6,206.3z M1047.6,188.7c-4,0-7.2,3.2-7.2,7.2c0,4,3.2,7.2,7.2,7.2s7.2-3.2,7.2-7.2&#10;&#9;&#9;&#9;&#9;C1054.8,192,1051.6,188.7,1047.6,188.7z" style="fill: rgb(0, 66, 85);"/>
		</g>
		<g>
			<path d="M 381.799988 135.100006 H 393.499988 V 281.600006 H 381.799988 V 135.100006 Z" class="st53" style="fill: rgb(223, 243, 253);"/>
			<path d="M 387.600006 135.100006 H 393.400006 V 281.600006 H 387.600006 V 135.100006 Z" class="st54" style="fill: rgb(182, 199, 209);"/>
			<path class="st3" d="M395.1,283.2h-14.9V133.5h14.9V283.2z M383.4,280h8.4V136.7h-8.4V280z" style="fill: rgb(0, 66, 85);"/>
			<path d="M 400.500006 128.300003 A 12.9 12.9 0 0 1 387.600006 141.200003 A 12.9 12.9 0 0 1 374.700006 128.300003 A 12.9 12.9 0 0 1 387.600006 115.400003 A 12.9 12.9 0 0 1 400.500006 128.300003 Z" class="st55" style="fill: rgb(151, 218, 248);"/>
			<path class="st56" d="M397.5,120.1c0.1,0.7,0.2,1.4,0.2,2.2c0,7.1-5.8,12.9-12.9,12.9c-4,0-7.5-1.8-9.9-4.6&#10;&#9;&#9;&#9;&#9;c1,6.1,6.3,10.7,12.7,10.7c7.1,0,12.9-5.8,12.9-12.9C400.5,125.2,399.4,122.3,397.5,120.1z" style="fill: rgb(123, 179, 204);"/>
			<path class="st3" d="M387.6,142.8c-8,0-14.5-6.5-14.5-14.5c0-8,6.5-14.5,14.5-14.5s14.5,6.5,14.5,14.5&#10;&#9;&#9;&#9;&#9;C402.1,136.3,395.6,142.8,387.6,142.8z M387.6,117c-6.2,0-11.3,5.1-11.3,11.3c0,6.2,5.1,11.3,11.3,11.3s11.3-5.1,11.3-11.3&#10;&#9;&#9;&#9;&#9;C398.9,122.1,393.8,117,387.6,117z" style="fill: rgb(0, 66, 85);"/>
			<path d="M 448.3999938964844 167.8000030517578 L 393.5 167.8000030517578 L 393.5 146.1999969482422 L 448.3999938964844 146.1999969482422 L 460.79998779296875 157 Z" class="st57" style="fill: rgb(124, 200, 158);"/>
			<path class="st3" d="M449,169.4h-57.1v-24.8H449l14.3,12.4L449,169.4z M395.1,166.2h52.7l10.6-9.2l-10.6-9.2h-52.7V166.2z" style="fill: rgb(0, 66, 85);"/>
			<path d="M 448.3999938964844 201.60000610351562 L 393.5 201.60000610351562 L 393.5 180 L 448.3999938964844 180 L 460.79998779296875 190.8000030517578 Z" class="st57" style="fill: rgb(124, 200, 158);"/>
			<path class="st3" d="M449,203.2h-57.1v-24.8H449l14.3,12.4L449,203.2z M395.1,200h52.7l10.6-9.2l-10.6-9.2h-52.7V200z" style="fill: rgb(0, 66, 85);"/>
			<path d="M 326.8999938964844 167.8000030517578 L 381.79998779296875 167.8000030517578 L 381.79998779296875 146.1999969482422 L 326.8999938964844 146.1999969482422 L 314.3999938964844 157 Z" class="st57" style="fill: rgb(124, 200, 158);"/>
			<path class="st3" d="M383.4,169.4h-57.1L311.9,157l14.3-12.4h57.1V169.4z M327.5,166.2h52.7v-18.4h-52.7l-10.6,9.2L327.5,166.2z" style="fill: rgb(0, 66, 85);"/>
			<path d="M 374.700012 281.600006 H 400.500011 V 291.900006 H 374.700012 V 281.600006 Z" class="st55" style="fill: rgb(151, 218, 248);"/>
			<path class="st3" d="M402.1,293.5h-29V280h29V293.5z M376.3,290.3h22.5v-7.1h-22.5V290.3z" style="fill: rgb(0, 66, 85);"/>
			<g>
				<path d="M 329.700012 159.800003 H 335.900012 V 162.000003 H 329.700012 V 159.800003 Z" class="st18" style="fill: rgb(255, 255, 255);"/>
				<path d="M 339.5 159.800003 H 345.7 V 162.000003 H 339.5 V 159.800003 Z" class="st18" style="fill: rgb(255, 255, 255);"/>
				<path d="M 349.299988 159.800003 H 355.499988 V 162.000003 H 349.299988 V 159.800003 Z" class="st18" style="fill: rgb(255, 255, 255);"/>
				<path d="M 359 159.800003 H 365.2 V 162.000003 H 359 V 159.800003 Z" class="st18" style="fill: rgb(255, 255, 255);"/>
				<path d="M 368.799988 159.800003 H 374.999988 V 162.000003 H 368.799988 V 159.800003 Z" class="st18" style="fill: rgb(255, 255, 255);"/>
			</g>
			<g>
				<path d="M 399.5 159.800003 H 405.7 V 162.000003 H 399.5 V 159.800003 Z" class="st18" style="fill: rgb(255, 255, 255);"/>
				<path d="M 409.299988 159.800003 H 415.499988 V 162.000003 H 409.299988 V 159.800003 Z" class="st18" style="fill: rgb(255, 255, 255);"/>
				<path d="M 419.100006 159.800003 H 425.300006 V 162.000003 H 419.100006 V 159.800003 Z" class="st18" style="fill: rgb(255, 255, 255);"/>
				<path d="M 428.899994 159.800003 H 435.099994 V 162.000003 H 428.899994 V 159.800003 Z" class="st18" style="fill: rgb(255, 255, 255);"/>
				<path d="M 438.700012 159.800003 H 444.900012 V 162.000003 H 438.700012 V 159.800003 Z" class="st18" style="fill: rgb(255, 255, 255);"/>
			</g>
			<g>
				<path d="M 399.5 194 H 405.7 V 196.2 H 399.5 V 194 Z" class="st18" style="fill: rgb(255, 255, 255);"/>
				<path d="M 409.299988 194 H 415.499988 V 196.2 H 409.299988 V 194 Z" class="st18" style="fill: rgb(255, 255, 255);"/>
				<path d="M 419.100006 194 H 425.300006 V 196.2 H 419.100006 V 194 Z" class="st18" style="fill: rgb(255, 255, 255);"/>
				<path d="M 428.899994 194 H 435.099994 V 196.2 H 428.899994 V 194 Z" class="st18" style="fill: rgb(255, 255, 255);"/>
				<path d="M 438.700012 194 H 444.900012 V 196.2 H 438.700012 V 194 Z" class="st18" style="fill: rgb(255, 255, 255);"/>
			</g>
		</g>
	</g>
</svg>