<?xml version="1.0" encoding="iso-8859-1"?>
<!-- Generator: Adobe Illustrator 19.0.0, SVG Export Plug-In . SVG Version: 6.00 Build 0)  -->
<svg version="1.1" id="Capa_1" xmlns="http://www.w3.org/2000/svg" xmlns:xlink="http://www.w3.org/1999/xlink" x="0px" y="0px"
	 viewBox="0 0 496 496" style="enable-background:new 0 0 496 496;" xml:space="preserve">
<polygon style="fill:#ED5565;" points="472,181.68 280,67.92 88,181.68 64,195.92 64,163.92 280,35.92 496,163.92 496,195.92 "/>
<path style="fill:#E6E9ED;" d="M472,181.68v230.24H312v-120h-64v120h-34.72l-73.04-73.04c1.68-4.88,2.72-9.92,3.28-14.96H216v-64
	v-24h-96v24v2.32c-9.36-8.408-20.4-13.92-32-16.488v-0.08v-64L280,67.92L472,181.68z M440,323.92v-48v-40h-96v40v48H440z
	 M280,203.92c17.68,0,32-14.408,32-32c0-17.68-14.32-32-32-32s-32,14.32-32,32C248,189.512,262.32,203.92,280,203.92z"/>
<polygon style="fill:#CCD1D9;" points="440,162.72 440,235.92 440,275.92 440,323.92 440,411.92 472,411.92 472,181.68 "/>
<polygon style="fill:#5D9CEC;" points="392,275.92 440,275.92 440,323.92 344,323.92 344,275.92 "/>
<rect x="248" y="291.92" style="fill:#ED5565;" width="64" height="120"/>
<path style="fill:#5D9CEC;" d="M168,259.92h48v64h-72.48c2.4-20.96-4.488-42.808-20.64-58.96c-0.96-0.96-1.84-1.84-2.88-2.64v-0.08
	v-2.32H168z"/>
<polygon style="fill:#87BCF4;" points="164.24,323.936 140.24,323.936 161.576,259.936 185.576,259.936 "/>
<polygon style="fill:#DA4453;" points="464,176.936 472,181.68 496,195.92 496,163.92 464,144.952 "/>
<path style="fill:#F5F7FA;" d="M168,275.92c-4.424,0-8-3.576-8-8v-8c0-4.424,3.576-8,8-8s8,3.576,8,8v8
	C176,272.344,172.424,275.92,168,275.92z"/>
<polygon style="fill:#87BCF4;" points="396,323.92 372,323.92 388,275.92 412,275.92 "/>
<polygon style="fill:#FFFFFF;" points="216,235.92 216,259.92 168,259.92 120,259.92 120,235.92 "/>
<path style="fill:#F5F7FA;" d="M392,291.92c-4.424,0-8-3.576-8-8v-8c0-4.424,3.576-8,8-8s8,3.576,8,8v8
	C400,288.344,396.424,291.92,392,291.92z"/>
<path style="fill:#5D9CEC;" d="M280,131.92c-22.056,0-40,17.944-40,40s17.944,40,40,40s40-17.944,40-40S302.056,131.92,280,131.92z"
	/>
<path style="fill:#F6BB42;" d="M216.08,414.72L216,460.08h-45.12L160,449.12v-21.2h-21.28l-2.72-2.8v-13.2h-13.28l-27.76-27.768
	c10.24-3.44,19.832-9.192,27.92-17.36c8.16-8.08,13.912-17.68,17.36-27.912l73.04,73.04L216.08,414.72z"/>
<path style="fill:#FFCE54;" d="M122.88,264.96c-0.96-0.96-1.84-1.84-2.88-2.64v-0.08c-9.36-8.408-20.4-13.92-32-16.488
	c-23.28-5.36-48.72,1.04-66.88,19.2c-28.16,28.16-28.16,73.76,0,101.832c20,20,48.808,25.84,73.84,17.36
	c10.24-3.44,19.832-9.192,27.92-17.36c8.16-8.08,13.912-17.68,17.36-27.912c1.68-4.88,2.72-9.92,3.28-14.96
	C145.92,302.96,139.04,281.12,122.88,264.96z M48.24,299.936c-4.424,0-8.04-3.576-8.04-8s3.536-8,7.952-8h0.088c4.416,0,8,3.576,8,8
	S52.656,299.936,48.24,299.936z"/>
<polygon style="fill:#FFFFFF;" points="440,235.92 440,275.92 392,275.92 344,275.92 344,235.92 "/>
<path style="fill:#F5F7FA;" d="M288,132.736c-2.584-0.528-5.256-0.816-8-0.816s-5.416,0.28-8,0.816v31.184h-31.184
	c-0.528,2.584-0.816,5.264-0.816,8s0.28,5.416,0.816,8H272v31.184c2.584,0.528,5.256,0.816,8,0.816s5.416-0.28,8-0.816V179.92
	h31.184c0.528-2.584,0.816-5.264,0.816-8s-0.28-5.416-0.816-8H288V132.736z"/>
<g>
</g>
<g>
</g>
<g>
</g>
<g>
</g>
<g>
</g>
<g>
</g>
<g>
</g>
<g>
</g>
<g>
</g>
<g>
</g>
<g>
</g>
<g>
</g>
<g>
</g>
<g>
</g>
<g>
</g>
</svg>
