<?xml version="1.0" encoding="utf-8"?>
<svg id="master-artboard" viewBox="0 0 880.3560180664062 969.0370483398438" version="1.1" xmlns="http://www.w3.org/2000/svg" x="0px" y="0px" enable-background="new 0 0 1400 980" width="880.3560180664062px" height="969.0370483398438px"><rect id="ee-background" x="0" y="0" width="880.3560180664062" height="969.0370483398438" style="fill: white; fill-opacity: 0; pointer-events: none;"/>
<path fill="none" stroke="#231F20" stroke-miterlimit="10" d="M538.4,246.1C538.4,246.1,538.4,246.1,538.4,246.1&#10;&#9;&#9;c0,0.2-0.1,0.4-0.1,0.6c0,0.1,0,0.2,0,0.3v0" transform="matrix(1, 0, 0, 1, -25.21479320526123, -10.962953567504883)"/><path fill="#F6C49F" d="M632.3,268.4v10.9l39.2,49.4c41.9-48.4,41.9-48.4,41.9-48.4l0.3-12.3c0,0-26.6,19.8-38.9,23.2&#10;&#9;&#9;C662.6,294.6,632.3,268.4,632.3,268.4z" transform="matrix(1, 0, 0, 1, -25.21479320526123, -10.962953567504883)"/><path fill="none" d="M609,199.7c0,0-0.2-2.1-0.4-5.4c-0.3,1.2-0.5,2.4-0.7,3.6L609,199.7z" transform="matrix(1, 0, 0, 1, -25.21479320526123, -10.962953567504883)"/><path fill="#343434" d="M608.3,212.9c4.4-2.8,0,0-1.2-6c-0.3-1.6,0.1-4.9,0.8-9.1c0.2-1.1,0.4-2.3,0.7-3.6&#10;&#9;&#9;c2.5-12,6.9-28.5,7.7-35.1c1.2-9.9,8.7-22.8,21-20c12.3,2.8,36.5-5.3,54.4-15.2c17.9-9.9,29,12.4,29,12.4s0,0,4.3,9.9&#10;&#9;&#9;c4.3,9.9,6.2,35.2,6.2,47c0,11.8,6.8,18.5,11.1,9.8c1.5-2.9,2.1-8.4,2.4-14.7c0.5-12.5-0.7-28.1-1.1-33.5c-0.6-8,1.2-59.9,3.1-59.9&#10;&#9;&#9;c1.9,0,3.1-8-13-16.7c-16.1-8.6-51.9-8-75.4-4.3c-23.5,3.7-32.1,20.4-32.1,20.4s-4.3-4.3-16.1,11.1c-11.7,15.4-11.1,58.1-11.1,58.1&#10;&#9;&#9;c0.8,8.8,1.6,16.7,2.3,23.4C603.3,204.8,605.1,214.9,608.3,212.9z" transform="matrix(1, 0, 0, 1, -25.21479320526123, -10.962953567504883)"/><path fill="#AE8D6E" d="M672.1,285.2c-10,0-22.4-7.5-35.8-17.8c-1.3-1-2.7-2.1-4-3.1v4.1c0,0,30.3,26.2,42.6,22.8&#10;&#9;&#9;c12.3-3.4,38.9-23.2,38.9-23.2v-5.1c-2,1.5-4.1,3.1-6.2,4.6C694.7,276.6,679.8,285.2,672.1,285.2z" transform="matrix(1, 0, 0, 1, -25.21479320526123, -10.962953567504883)"/><path fill="#F6C49F" d="M751.1,193.6c-0.3-3.7-2.1-6.4-4.2-8.3l-2.3,2.9c-0.2,6.3-0.9,11.8-2.4,14.7c-4.3,8.6-11.1,1.9-11.1-9.8&#10;&#9;&#9;c0-11.8-1.9-37.1-6.2-47c-4.3-9.9-4.3-9.9-4.3-9.9s-11.1-22.2-29-12.4c-17.9,9.9-42.1,17.9-54.4,15.2c-12.3-2.8-19.8,10.1-21,20&#10;&#9;&#9;c-0.8,6.6-5.3,23.1-7.7,35.1c0.2,3.3,0.4,5.4,0.4,5.4l-1.1-1.9c-0.8,4.2-1.2,7.6-0.8,9.1c1.2,6,5.6,3.2,1.2,6c-3.2,2-5-8-6.9-26&#10;&#9;&#9;l-2.2-3.7c-3.2,1.7-6.3,4.9-6.7,10.7c0,0,0,0,0,0c0,0.4,0,0.8,0,1.3c0,3.5,0.9,6.7,2.3,9.5c0,0,0,0,0,0&#10;&#9;&#9;c4.2,8.4,12.5,13.4,12.5,13.4s-2.9,22.9,15.5,38.4c3.2,2.7,6.5,5.4,9.7,7.9c1.3,1.1,2.7,2.1,4,3.1c13.4,10.3,25.8,17.8,35.8,17.8&#10;&#9;&#9;c7.7,0,22.6-8.6,35.4-17.7c2.2-1.5,4.3-3.1,6.2-4.6c6.7-5.1,12.1-10,14.5-13.2c7.4-9.6,11.8-34.7,11.8-34.7s4.1-4.1,7.3-9.4v0&#10;&#9;&#9;C749.6,201.9,751.4,197.5,751.1,193.6z" transform="matrix(1, 0, 0, 1, -25.21479320526123, -10.962953567504883)"/><path fill="#FCD8D6" d="M852.5,432.4c-4.6-26.2-19.2-73.9-36.8-90c-17.6-16.2-101.9-52.3-101.9-52.3l-8.4,74.6l-33-36.9&#10;&#9;&#9;&#9;l-34.5,36.9l-8.4-76.2c0,0-87.4,44.6-103.5,58.5c-16.1,13.8-19.9,111.5-19.9,111.5h351C857.1,458.6,857.1,458.6,852.5,432.4z" transform="matrix(1, 0, 0, 1, -25.21479320526123, -10.962953567504883)"/><path d="M 713.7999877929688 275.8999938964844 L 713.7999877929688 290.1000061035156 L 705.2999877929688 364.70001220703125 L 672.4000244140625 327.79998779296875 Z" fill="#F07A75" transform="matrix(1, 0, 0, 1, -25.21479320526123, -10.962953567504883)"/><path d="M 632.5 275.8999938964844 L 629.5 288.6000061035156 L 637.9000244140625 364.70001220703125 L 672.4000244140625 327.79998779296875 Z" fill="#F07A75" transform="matrix(1, 0, 0, 1, -25.21479320526123, -10.962953567504883)"/><path d="M 656.0999755859375 345.29998779296875 L 664 360.1000061035156 L 650.9000244140625 458.6000061035156 L 693.0999755859375 458.6000061035156 L 681.5999755859375 358.6000061035156 L 688 345.29998779296875 L 672.4000244140625 327.79998779296875 Z" fill="#723138" transform="matrix(1, 0, 0, 1, -25.21479320526123, -10.962953567504883)"/>
<path fill="#605343" d="M323.3,384c0,0-8.2,0.5-21,1.3h0c-0.8,0-1.6,0.1-2.4,0.1c-1.3,0.1-2.6,0.2-4,0.2l-2-25.7&#10;&#9;&#9;c0,0-12.7-39.9-25.8-27.7c-0.4,0.3-0.8,0.7-1.1,1.2v-25.7l-0.6,0c1.3-0.9,2.6-1.8,3.9-2.7c1.8-1.3,3.5-2.6,5.2-3.8&#10;&#9;&#9;c6.8-5.2,12.3-10.2,14.8-13.3c7.1-9.3,11.4-33.4,11.4-33.4s11.4-11.4,10.7-20.6c-0.3-3.5-1.9-6.1-4-7.9l-7.1,15.4&#10;&#9;&#9;c0,0-0.2-9.2-0.1-19.6c-0.1,0-0.2-0.1-0.2-0.1s0.1-0.6,0.2-1.7c0.2-2.4,0.4-7,0.1-12.6v-0.3c-0.1-0.6-0.1-1.2-0.2-1.8&#10;&#9;&#9;c-1.8-10.5-20.5,4.2-30.7,2c-10.8-2.3-24.7-42.4-24.7-42.4s-7.7-13.1-16.2,0c-8.5,13.1-17,43.9-29.3,45.5c-12,1.5-24.5-2-25-2.1&#10;&#9;&#9;c0,0.2-0.1,0.4-0.1,0.5c-0.6,4-1.1,8.3-1.5,12.8v16.5l-9.7-13.3c-2.5,2-4.5,5.2-4.5,10.2c0,13.5,14.2,22.1,14.2,22.1&#10;&#9;&#9;s-2.8,22.1,15,37c2.9,2.5,5.8,4.8,8.7,7.1c1.5,1.2,3,2.4,4.5,3.5c2.4,1.9,4.9,3.7,7.3,5.3l-0.6,0l-0.3,2.6l-0.1,1.3l-1.4,11.9&#10;&#9;&#9;l-0.6,5.4c0,0-9.7,1.7-5.9,6c-2.2,0.7-4.9,1.5-8.1,2.2c-7,1.7,4.4,33-5,33c-1.4,0-5.8,0.5-10.7,1.3c-7.1,1.2-15.3,2.9-16.8,4.3&#10;&#9;&#9;c0-1.2-1.6-34.1-1.6-35.4c0.5-38-8.5-87.4-5.3-101.6c4.6-20.8-13.1-94.1,46.3-110.2c0,0,17.7-11.6,41.6-11.6&#10;&#9;&#9;c23.9,0,50.9,17.7,60.1,30.8c9.3,13.1,19.2,66.3,11.9,104.1c-7.3,37.8-4,60.1-4,60.1L310,330c0,0,0,0,0,0l2.1,17l9.2,30.5&#10;&#9;&#9;L323.3,384z" transform="matrix(1, 0, 0, 1, -25.21479320526123, -10.962953567504883)"/><path fill="#AE8D6E" d="M275.3,296.9v5.7c0,0-3.5,3-8.5,7c-8.5,6.8-21.4,16.5-28.9,18.9c-7.1,2.3-20.5-7.5-30.1-15.6&#10;&#9;&#9;c-6.3-5.3-10.8-9.9-10.8-9.9v-4.5c1.3,1.2,2.6,2.4,3.8,3.5c12.9,11.5,24.8,19.8,34.4,19.8c7.4,0,21.7-9.6,34-19.7&#10;&#9;&#9;C271.3,300.4,273.4,298.6,275.3,296.9z" transform="matrix(1, 0, 0, 1, -25.21479320526123, -10.962953567504883)"/><path fill="#F6C49F" d="M235.9,321.9c-7.7,0-16.9-4.6-27-11.6l-0.2,0c10.1,7.1,19.5,11.8,27.3,11.8c6.6,0,18.9-6.6,30.2-14.3&#10;&#9;&#9;l-0.4,0C254.5,315.4,242.4,321.9,235.9,321.9z" transform="matrix(1, 0, 0, 1, -25.21479320526123, -10.962953567504883)"/><path fill="#F6C49F" d="M290.1,288c7.1-9.2,11.4-33.4,11.4-33.4s11.4-11.4,10.7-20.6c-0.3-3.5-1.9-6.1-4-7.9l-7.1,15.5&#10;&#9;&#9;c0,0-0.1-9.2-0.1-19.6c-0.1,0-0.2-0.1-0.2-0.1s0.1-0.6,0.2-1.7c0.2-2.4,0.4-7,0.1-12.6v-0.3c0-0.6-0.1-1.2-0.1-1.8&#10;&#9;&#9;c-1.8-10.5-20.5,4.2-30.7,2c-10.8-2.3-24.7-42.4-24.7-42.4s-7.7-13.1-16.2,0c-8.5,13.1-17,43.9-29.3,45.5c-12,1.5-24.5-2-25-2.1&#10;&#9;&#9;c0,0.2-0.1,0.4-0.1,0.5c-0.6,4-1.1,8.3-1.5,12.8v16.5l-9.7-13.3c-2.5,2-4.5,5.2-4.5,10.2c0,13.5,14.2,22.1,14.2,22.1&#10;&#9;&#9;s-2.8,22.1,14.9,37c4.4,3.7,8.8,7.3,13.2,10.6c2.5,1.9,4.9,3.7,7.3,5.3l0.2,0c10,6.9,19.2,11.6,27,11.6c6.5,0,18.6-6.5,29.8-14.1&#10;&#9;&#9;l0.4,0c1.3-0.9,2.6-1.8,3.9-2.7C279.1,298.6,287,291.9,290.1,288z" transform="matrix(1, 0, 0, 1, -25.21479320526123, -10.962953567504883)"/><path fill="#C23D37" d="M405.7,461.5h-153L272,337.3l-7.4-9l5.5-8.4l0,0l24.8,26.6c0,0,36.5,19.7,57.2,23.4&#10;&#9;&#9;c20.8,3.7,43.8,11.4,49.2,45.8C406.8,450,405.7,461.5,405.7,461.5z" transform="matrix(1, 0, 0, 1, -25.21479320526123, -10.962953567504883)"/><path d="M 272 337.29998779296875 L 252.8000030517578 461.5 L 233.39999389648438 461.5 L 233.39999389648438 461.5 L 220.6999969482422 461.5 L 201.6999969482422 339.20001220703125 L 208.89999389648438 330.3999938964844 L 237.6999969482422 369.8999938964844 L 236.6999969482422 371.29998779296875 L 238 370.1000061035156 L 237.6999969482422 369.79998779296875 L 264.70001220703125 328.29998779296875 L 266.79998779296875 330.8999938964844 L 267.8999938964844 332.29998779296875 Z" fill="#C23D37" transform="matrix(1, 0, 0, 1, -25.21479320526123, -10.962953567504883)"/><path fill="#C23D37" d="M220.7,461.5H71.1c0,0-1.1-11.4,4.4-45.8c5.5-34.4,28.4-42.1,49.2-45.8c17.7-3.1,46.9-18,55.1-22.3&#10;&#9;&#9;c1.4-0.7,2.2-1.2,2.2-1.2l0.2,0.4l21.5-23.7l5.3,7.3l-7.2,8.8L220.7,461.5z" transform="matrix(1, 0, 0, 1, -25.21479320526123, -10.962953567504883)"/><path d="M 305 426.1000061035156 L 252.89999389648438 461.5 L 252.8000030517578 461.6000061035156 L 252.8000030517578 461.5 L 272 337.29998779296875 L 267.8999938964844 332.29998779296875 L 266.79998779296875 330.8999938964844 L 264.70001220703125 328.29998779296875 L 264.6000061035156 328.29998779296875 L 266.79998779296875 324.8999938964844 L 270.1000061035156 319.8999938964844 L 270.1000061035156 319.8999938964844 L 295 346.70001220703125 L 299.79998779296875 385.5 L 301.3999938964844 398.1000061035156 L 278.8999938964844 403.6000061035156 Z" fill="#EDE0CF" transform="matrix(1, 0, 0, 1, -25.21479320526123, -10.962953567504883)"/><path fill="#F6C49F" d="M266.8,324.9l-2.2,3.4l0,0.1l-26.9,41.5l0.3,0.3l-1.3,1.1l1-1.4l-28.8-39.5l0.1-0.1l-2.7-4.2l1.4-11.9&#10;&#9;&#9;l0.1-1.3c9.5,8.1,23,17.9,30.1,15.6c7.4-2.4,20.3-12.1,28.9-18.9V324.9z" transform="matrix(1, 0, 0, 1, -25.21479320526123, -10.962953567504883)"/><path d="M 220.6999969482422 461.6000061035156 L 220.5 461.5 L 169.3000030517578 426.70001220703125 L 195 404.5 L 172.8000030517578 399.1000061035156 L 175.89999389648438 374 L 179.10000610351562 348.3999938964844 L 179.8000030517578 347.6000061035156 L 203.60000610351562 322 L 206.3000030517578 326.1000061035156 L 209 330.29998779296875 L 208.89999389648438 330.3999938964844 L 201.6999969482422 339.20001220703125 L 220.6999969482422 461.5 Z" fill="#EDE0CF" transform="matrix(1, 0, 0, 1, -25.21479320526123, -10.962953567504883)"/>
<path fill="#F6C49F" d="M657.5,749.8v10.9l38.3,52c41.9-48.4,42.8-50.9,42.8-50.9l0.3-12.3c0,0-26.6,19.8-38.9,23.2&#10;&#9;&#9;C687.8,776,657.5,749.8,657.5,749.8z" transform="matrix(1, 0, 0, 1, -25.21479320526123, -10.962953567504883)"/><path fill="#AE8D6E" d="M697.3,766.6c-10,0-22.4-7.5-35.8-17.8c-1.3-1-2.7-2.1-4-3.1v4.1c0,0,30.3,26.2,42.6,22.8&#10;&#9;&#9;c12.3-3.4,38.9-23.2,38.9-23.2v-5.1c-2,1.5-4.1,3.1-6.2,4.6C720,758,705,766.6,697.3,766.6z" transform="matrix(1, 0, 0, 1, -25.21479320526123, -10.962953567504883)"/><g transform="matrix(1, 0, 0, 1, -25.21479320526123, -10.962953567504883)">
			<path fill="#BB9C40" d="M662,762.2v-12.7h70.7c0,0-5.7,14.6-7.6,20.4c-0.6,1.9,4.9,6.1,13.1,10.9c9.4-8.7,18.1-17.2,20.8-21.4&#10;&#9;&#9;&#9;&#9;c6.6-10.3,12.3-38.3,11-50.5v0l-0.4-22.2c0,0,0.9-36.6,0-49.7c-0.9-13.1-12.3-20.6-12.3-20.6s0,0-4.1-16.8&#10;&#9;&#9;&#9;&#9;c-4.1-16.8-23-37.4-46-39.2c-23-1.9-33.7,14-33.7,14s0,0-4.9-3.7c-4.9-3.8-27.1,12.1-41.3,51.3c-10.8,30-11.7,43.6-6.5,73.9&#10;&#9;&#9;&#9;&#9;c0,0,0,0,0,0c0.6,3.7,1.4,7.6,2.2,11.8c0,0,0,0,0,0c1.2,6.4,2.7,13.6,4.3,21.7c4.2,21,13.6,36.9,23.8,48.7&#10;&#9;&#9;&#9;&#9;c5.5-2.2,9.1-3.8,9.1-3.8L662,762.2z"/>
		</g><path fill="#F6C49F" d="M770,690.9L770,690.9c-3.1,5.1-7,9.1-7,9.1s-4.3,24.2-11.4,33.4c-3,3.9-10.9,10.7-20,17.1&#10;&#9;&#9;&#9;c-12.3,8.8-26.7,17-34.1,17c-9.6,0-21.6-7.2-34.5-17.1c-4.3-3.3-8.7-6.9-13.2-10.6c-17.8-14.9-14.9-37-14.9-37s-8-4.8-12-12.9&#10;&#9;&#9;&#9;c0,0,0,0,0,0c-1.3-2.7-2.2-5.8-2.2-9.2c0-0.4,0-0.8,0-1.2c0,0,0,0,0,0c0.4-5.6,3.3-8.6,6.5-10.3l9.5,15.9c0,0-1.8-17.9,0-32.9v0&#10;&#9;&#9;&#9;c0-0.3,0.1-0.6,0.1-0.9c0.1-0.6,0.2-1.2,0.3-1.8c0,0,0,0,0-0.1c2.6-13.4,12-22.2,18.1-28.4c6.6-6.6,1.3-18.5,22.2-22.2&#10;&#9;&#9;&#9;c20.9-3.7,19.7,17.3,40.3,46.3c20.6,29,28,6.4,37,10.5c9.1,4.1,4.1,29.6,4.1,29.6l10.6-13.8c2,1.9,3.7,4.5,4,8&#10;&#9;&#9;&#9;C774,683.2,772.2,687.4,770,690.9z" transform="matrix(1, 0, 0, 1, -25.21479320526123, -10.962953567504883)"/><path d="M 728.2000122070312 760.7999877929688 L 753 787.5 L 721.0999755859375 836.0999755859375 L 695.7999877929688 810.7999877929688 Z" fill="#FFFFFF" transform="matrix(1, 0, 0, 1, -25.21479320526123, -10.962953567504883)"/><path d="M 692.2000122070312 815.2000122070312 L 692.2000122070312 902.5 L 700.7999877929688 902.5 L 700.7999877929688 815.9000244140625 L 695.7999877929688 810.9000244140625 Z" fill="#FFFFFF" transform="matrix(1, 0, 0, 1, -25.21479320526123, -10.962953567504883)"/><path fill="#278086" d="M753,787.5c0,0,36.5,19.7,57.2,23.4c20.8,3.7,43.8,11.4,49.2,45.8s4.4,45.8,4.4,45.8h-163v-86.6l20.3,20.3&#10;&#9;&#9;&#9;L753,787.5z" transform="matrix(1, 0, 0, 1, -25.21479320526123, -10.962953567504883)"/><path d="M 688.7999877929688 819.2999877929688 L 695.7999877929688 810.9000244140625 L 661.7000122070312 764.0999755859375 L 640.2999877929688 787.7999877929688 L 671.9000244140625 836.0999755859375 Z" fill="#FFFFFF" transform="matrix(1, 0, 0, 1, -25.21479320526123, -10.962953567504883)"/><path fill="#278086" d="M671.9,836.1l-31.6-48.3l-0.2-0.4c0,0-36.5,19.7-57.2,23.4c-20.8,3.7-43.8,11.4-49.2,45.8&#10;&#9;&#9;&#9;&#9;c-5.5,34.3-4.4,45.8-4.4,45.8h163v-86.6l-3.4,3.4L671.9,836.1z" transform="matrix(1, 0, 0, 1, -25.21479320526123, -10.962953567504883)"/>


<g transform="matrix(1, 0, 0, 1, -25.21479320526123, -10.962953567504883)">
		<path fill="#F6C49F" d="M271,589.1c-9.9,6-20.3,1.2-31.1-4.5s-43.3-10.4-55.2-3.8s-7.6,25.6-14.2,33.2&#10;&#9;&#9;&#9;c-6.6,7.6-15.2,27.1-12.3,29.4c2.8,2.4,1,17.1-2,19.1c2.2,1.9,3.9,2.9,3.9,2.9s-2.9,22.5,15.2,37.7c4.5,3.8,9,7.5,13.4,10.8&#10;&#9;&#9;&#9;c13.1,10.1,25.4,17.4,35.2,17.4c7.5,0,22.2-8.4,34.7-17.3c9.2-6.6,17.3-13.5,20.4-17.5c7.3-9.4,11.6-34.1,11.6-34.1&#10;&#9;&#9;&#9;s-0.7-33.4-8.7-45.3C273.9,605.3,271,589.1,271,589.1z"/>
		<path fill="#F6C49F" d="M145.6,643c0,8.3,5.2,14.7,9.4,18.5c-1.7-4.7-2.2-22.4-2.9-30.2C148.7,633.2,145.6,636.6,145.6,643z"/>
		<path fill="#F6C49F" d="M295.6,632c-2.3,17-5,30.6-5,30.6s11.6-11.6,10.9-21C301.2,636.9,298.4,633.9,295.6,632z"/>
		<path fill="#625242" d="M156.2,662.6C156.2,662.6,156.2,662.6,156.2,662.6c-0.4-0.3-0.8-0.7-1.2-1.1&#10;&#9;&#9;&#9;C155.4,662.5,155.7,662.9,156.2,662.6z"/>
		<path fill="#625242" d="M296.5,570.9c-8.2-20-36.7-44.5-72.9-43.6c-36.2,0.9-57.1,22.7-65.2,37.3s-6.4,37.1-6.4,38.6&#10;&#9;&#9;&#9;c0,1.4-1.3,19-0.2,26.1c0.1,0.6,0.2,1.3,0.3,2.1c0.8,7.8,1.3,25.5,2.9,30.2c0.4,0.4,0.8,0.7,1.2,1c2.9-2,4.8-16.7,2-19.1&#10;&#9;&#9;&#9;c-2.8-2.4,5.7-21.8,12.3-29.4c6.6-7.6,2.4-26.6,14.2-33.2s44.4-1.9,55.2,3.8s21.1,10.4,31.1,4.5c0,0,2.9,16.2,10.9,28.2&#10;&#9;&#9;&#9;c8,12,8.7,45.3,8.7,45.3s2.7-13.6,5-30.6C298.6,609.9,301.1,582.2,296.5,570.9z"/>
	</g><path fill="#AE8D6E" d="M223.5,731c-10,0-22.4-7.5-35.8-17.8c-1.3-1-2.7-2.1-4-3.1v4.1c0,0,30.3,26.2,42.6,22.8&#10;&#9;&#9;c12.3-3.4,38.9-23.2,38.9-23.2v-5.1c-2,1.5-4.1,3.1-6.2,4.6C246.1,722.4,231.1,731,223.5,731z" transform="matrix(1, 0, 0, 1, -25.21479320526123, -10.962953567504883)"/><path fill="#F6C49F" d="M265.1,721.6v14.3c-49.5,47-82,1.8-84.2-1.3l8.4,75.2l0.1,0.6l-0.1,0.1l-8.4-76.1v0l2.8-11.6v-8.6&#10;&#9;&#9;c0,0,17.3,15,31.1,20.8c4.4,1.9,8.5,2.8,11.5,2c1.4-0.4,2.9-1,4.6-1.7c13.3-5.9,34.3-21.5,34.3-21.5l-0.2,8.2L265.1,721.6z" transform="matrix(1, 0, 0, 1, -25.21479320526123, -10.962953567504883)"/><path fill="#878CC5" d="M408.4,904.4c0,0,0,0-4.6-26.2c-4.6-26.2-19.2-73.9-36.8-90c-13.5-12.4-66.3-36.6-90.2-47.2l-1.2-0.5&#10;&#9;&#9;c-3.9-1.7-7-3.1-8.8-3.8l-1.8-0.8c-49.5,47-82,1.8-84.2-1.3l0-0.2v0l-0.1,0v0c0,0-0.2,0.1-0.5,0.3l0,0l-11.1,4.9l-0.8,1.3&#10;&#9;&#9;c-24.8,12.9-78.7,41.4-91,52c-16.1,13.8-19.9,111.5-19.9,111.5h118l0.1,0.2h21.8l0-0.2H408.4z M225.5,771.4l-1.7,2.2l-0.1-0.1&#10;&#9;&#9;C224.3,772.8,224.9,772.1,225.5,771.4z" transform="matrix(1, 0, 0, 1, -25.21479320526123, -10.962953567504883)"/><path fill="#F6C49F" d="M265.1,735.9c-49.5,47-82,1.8-84.2-1.3c-0.1-0.1-0.1-0.2-0.1-0.2h0.1l33.8,0.6l16.1,0.3L265.1,735.9z" transform="matrix(1, 0, 0, 1, -25.21479320526123, -10.962953567504883)"/>
</svg>